<?xml version="1.0" standalone="no"?>
<!DOCTYPE svg PUBLIC "-//W3C//DTD SVG 1.1//EN" "http://www.w3.org/Graphics/SVG/1.1/DTD/svg11.dtd" >
<svg xmlns="http://www.w3.org/2000/svg">
<metadata>Generated by IcoMoon</metadata>
<defs>
<font id="fe" horiz-adv-x="1024">
<font-face units-per-em="1024" ascent="960" descent="-64" />
<missing-glyph horiz-adv-x="1024" />
<glyph unicode="&#x20;" horiz-adv-x="512" d="" />
<glyph unicode="&#xe600;" glyph-name="air-squat-jumping" d="M420.429 622.72h-49.075v-201.37h0.026v-20.608h-0.026l0.026-0.026v-0.947h0.333l17.997-49.51 118.374 43.034v-147.507h78.925v233.6h-117.504v89.779l200.141 24.909-6.63 53.274-197.939-24.627zM486.502 699.904c0-36.491-29.582-66.074-66.074-66.074s-66.074 29.582-66.074 66.074c0 36.491 29.582 66.074 66.074 66.074s66.074-29.582 66.074-66.074zM219.008 159.181h585.984v-29.158h-585.984v29.158z" />
<glyph unicode="&#xe601;" glyph-name="air-squat" d="M547.149 421.504h-77.645v89.779l200.141 24.909-6.63 53.274-197.939-24.627h-93.722v-201.37h0.026v-20.608h-0.026l0.026-0.026v-0.947h0.333l17.997-49.51 118.374 43.034v-147.507h78.925v233.6h-25.242zM486.502 642.022c0-36.491-29.582-66.074-66.074-66.074s-66.074 29.582-66.074 66.074c0 36.491 29.582 66.074 66.074 66.074s66.074-29.582 66.074-66.074z" />
<glyph unicode="&#xe602;" glyph-name="arch-rock-hold" d="M882.355 474.829l-12.621 52.173-108.083-26.163c-9.958-0.154-19.635-2.509-28.493-6.886l-56.397-13.645-239.386 0.973-256.384 45.747-11.622-65.126 264.96-47.258-0.154-35.174 242.15-0.973 0.179 46.566 20.378 4.941c1.792-22.502 14.797-43.546 36.531-54.195 32.768-16.051 72.346-2.509 88.397 30.259 8.73 17.818 8.448 37.555 1.331 54.528l59.213 14.234z" />
<glyph unicode="&#xe603;" glyph-name="arch-rock" d="M848.717 431.514l-111.13 4.019c-9.626 2.56-19.584 2.893-29.286 1.050l-58.010 2.099-232.883 66.406-0.282-0.998-232.346 112.307-28.774-59.597 242.739-117.325-9.216-32.358 232.883-66.406 12.774 44.774 20.966-0.768c-4.378-22.144 2.483-45.926 20.531-62.054 27.213-24.32 68.966-21.965 93.286 5.222 13.235 14.797 18.278 33.869 16.026 52.122l60.826-2.202 1.894 53.709z" />
<glyph unicode="&#xe604;" glyph-name="bag-slam" d="M519.45 570.010l-99.072 23.782-46.285-192.742-41.728-99.123-0.845 0.051-9.523-162.842 53.606-3.123 8.832 151.194 34.022 80.845 0.102-0.026 25.805-6.195 40.243-94.234 29.414-125.44 52.275 12.262-28.698 122.394 1.229 0.512-57.395 134.4 23.987 99.917 101.402-78.464 32.87 42.47-120.525 93.261zM550.682 668.058c0-36.491-29.582-66.074-66.074-66.074s-66.074 29.582-66.074 66.074c0 36.491 29.582 66.074 66.074 66.074s66.074-29.582 66.074-66.074zM743.706 194.944l-18.611 178.995c-2.432 23.424-23.603 40.602-47.027 38.17s-40.602-23.603-38.17-47.027l18.611-178.995c2.432-23.424 23.603-40.602 47.027-38.17 23.45 2.458 40.602 23.603 38.17 47.027z" />
<glyph unicode="&#xe605;" glyph-name="banger-down" d="M541.542 737.126c0-36.491-29.582-66.074-66.074-66.074s-66.074 29.582-66.074 66.074c0 36.491 29.582 66.074 66.074 66.074s66.074-29.582 66.074-66.074zM410.982 247.373h128.461v-154.573h-128.461v154.573zM594.662 194.79h128.461v-101.965h-128.461v101.965zM227.533 194.79h128.461v-101.965h-128.461v101.965zM796.467 509.44l-35.021 95.539-46.822-17.178 13.338-36.378-56.704-20.787-122.24 123.29-0.23-0.23v0.23h-146.688v-0.614l-49.024-16.768 49.024-143.36v-55.936l-95.974-95.974-0.435 0.077-18.56-105.062 52.864-9.344 15.514 87.782 91.776 91.776-0.717 0.717h57.805l-0.717-0.717 90.496-90.496 18.381-89.498 52.608 10.803-21.043 102.554 1.075 1.075-96.384 96.384v17.331l189.21 69.376 11.648-31.795 46.822 17.203zM548.762 577.894l67.021-67.584-67.021-24.576v92.16z" />
<glyph unicode="&#xe606;" glyph-name="banger-low" d="M627.405 708.915c0-36.491-29.582-66.074-66.074-66.074s-66.074 29.582-66.074 66.074c0 36.491 29.582 66.074 66.074 66.074s66.074-29.582 66.074-66.074zM497.331 275.584h128.461v-154.573h-128.461v154.573zM339.277 150.17h128.461v-29.133h-128.461v29.133zM655.181 150.17h128.461v-29.133h-128.461v29.133zM488.038 426.47v-17.331l-96.384-96.384 1.075-1.075-21.043-102.554 52.608-10.803 18.381 89.498 90.496 90.496-0.717 0.717h57.805l-0.717-0.717 91.776-91.776 15.514-87.782 52.864 9.344-18.56 105.062-0.435-0.077-95.974 95.974v55.936l49.024 143.36-49.024 16.768v0.614h-146.688v-0.205l-0.23 0.205-122.24-123.29-56.704 20.787 13.338 36.378-46.822 17.178-35.021-95.539 46.822-17.178 11.648 31.795 189.21-69.402zM488.038 549.658v-92.16l-67.021 24.576 67.021 67.584z" />
<glyph unicode="&#xe607;" glyph-name="banger-mid" d="M664.55 280.269l-95.974 95.974v55.936l49.024 143.36-49.024 16.768v0.614h-146.688v-0.23l-0.23 0.23-122.24-123.29-56.704 20.787 13.338 36.378-46.822 17.178-35.021-95.539 46.822-17.178 11.648 31.795 189.21-69.376v-17.331l-96.384-96.384 1.075-1.075-21.043-102.554 52.608-10.803 18.381 89.498 90.496 90.496-0.717 0.717h57.805l-0.717-0.717 91.776-91.776 15.514-87.782 52.864 9.344-18.56 105.062-0.435-0.102zM354.893 449.254l66.995 67.584v-92.16l-66.995 24.576zM561.28 676.070c0-36.491-29.582-66.074-66.074-66.074s-66.074 29.582-66.074 66.074c0 36.491 29.582 66.074 66.074 66.074s66.074-29.582 66.074-66.074zM721.306 441.958h128.461v-154.573h-128.461v154.573zM721.306 255.821h128.461v-101.965h-128.461v101.965z" />
<glyph unicode="&#xe608;" glyph-name="banger" d="M748.109 313.165l-0.435-0.077-95.974 95.974v55.936l49.024 143.36-49.024 16.768v0.614h-146.688v-0.23l-0.23 0.23-122.24-123.29-56.704 20.787 13.338 36.378-46.822 17.152-35.021-95.539 46.822-17.178 11.648 31.795 189.21-69.376v-17.331l-96.384-96.384 1.075-1.075-21.043-102.554 52.582-10.803 18.381 89.498 90.496 90.496-0.717 0.717h57.805l-0.717-0.717 91.776-91.776 15.514-87.782 52.864 9.344-18.534 105.062zM505.011 457.523l-67.021 24.576 67.021 67.584v-92.16zM644.403 708.915c0-36.491-29.582-66.074-66.074-66.074s-66.074 29.582-66.074 66.074c0 36.491 29.582 66.074 66.074 66.074s66.074-29.582 66.074-66.074zM514.33 275.584h128.461v-154.573h-128.461v154.573z" />
<glyph unicode="&#xe609;" glyph-name="battle-rope-alt-double-wave" d="M436.634 668.058c0-36.491-29.582-66.074-66.074-66.074s-66.074 29.582-66.074 66.074c0 36.491 29.582 66.074 66.074 66.074s66.074-29.582 66.074-66.074zM836.915 209.382c-45.107-115.712-225.459-112.922-263.45 8.909-9.805 31.437-4.787 61.926 2.125 92.032 4.838-12.621 11.085-24.781 19.533-36.326 25.088-34.278 72.090-70.4 116.506-69.427 93.645 2.048 118.733 103.808 108.134 178.355-2.893 20.301-33.715 11.674-30.848-8.499 17.587-123.725-106.522-195.072-177.101-67.072-23.782 43.136-8.96 99.712-35.635 139.29-13.261 19.686-37.018 29.722-60.698 36.89l-110.336 85.402 0.256 1.126-99.072 23.808-46.285-192.768-41.728-99.123-0.87 0.051-9.498-162.842 53.606-3.123 8.832 151.194 34.022 80.819 0.077-0.026 25.805-6.195 40.243-94.234 29.44-125.44 52.275 12.262-28.723 122.368 1.229 0.538-57.395 134.4 23.987 99.917 101.402-78.464 14.285 18.458c0.435-0.154 0.973-0.307 1.408-0.486 20.736-10.88 35.021-21.453 41.677-48.282 6.81-27.418-4.070-52.992-8.602-80-6.246-37.274-9.626-76.237 1.050-113.126 13.338-46.106 49.254-89.293 94.874-105.446 93.696-33.178 193.843 3.021 230.298 96.538 7.526 19.2-23.398 27.52-30.822 8.525z" />
<glyph unicode="&#xe60a;" glyph-name="battle-rope-alt-power-slam" d="M493.082 668.058c0-36.491-29.582-66.074-66.074-66.074s-66.074 29.582-66.074 66.074c0 36.491 29.582 66.074 66.074 66.074s66.074-29.582 66.074-66.074zM813.747 218.931c-62.771 32.102-121.088 63.795-134.118 139.827-9.037 52.762 14.618 98.637 16.717 149.888 2.253 54.938-35.098 75.648-80.998 98.97-3.123 1.587-6.067 1.818-8.909 1.536l-2.995 9.651-150.221-46.694-90.419 21.734-46.285-192.768-41.728-99.123-0.87 0.026-9.498-162.842 53.606-3.123 8.832 151.194 34.022 80.819 0.077-0.026 25.805-6.195 40.243-94.234 29.44-125.44 52.275 12.262-28.723 122.368 1.229 0.538-57.395 134.4 24.653 102.682 170.88 53.12-0.742 2.355c24.448-13.363 43.11-29.184 43.827-70.118 0.358-20.531-10.88-48.435-13.798-68.992-4.25-30.080-5.99-60.262 0.691-90.138 17.178-76.928 82.406-115.686 148.25-149.35 18.304-9.318 34.509 18.278 16.154 27.674z" />
<glyph unicode="&#xe60b;" glyph-name="battle-rope-alt-wave" d="M539.034 668.058c0-36.491-29.582-66.074-66.074-66.074s-66.074 29.582-66.074 66.074c0 36.491 29.582 66.074 66.074 66.074s66.074-29.582 66.074-66.074zM913.178 222.694c-57.6 3.226-122.829 7.245-164.122 53.555-39.91 44.723-40.371 103.578-56.397 157.722-14.31 48.384-49.126 58.88-92.006 62.874l-93.133 72.064 0.256 1.126-99.072 23.808-46.285-192.768-41.728-99.123-0.87 0.051-9.498-162.842 53.606-3.123 8.832 151.194 34.022 80.819 0.077-0.026 25.805-6.195 40.243-94.234 29.44-125.44 52.275 12.262-28.723 122.368 1.229 0.538-57.395 134.4 23.987 99.917 101.402-78.464 14.362 18.56c25.626-13.67 45.44-29.158 46.208-71.398 0.358-20.531-10.88-48.435-13.798-68.992-4.25-30.080-5.99-60.262 0.691-90.138 17.178-76.928 82.406-115.686 148.25-149.35 18.304-9.37 34.509 18.227 16.154 27.622-62.771 32.102-121.088 63.795-134.118 139.827-5.99 34.893 2.304 66.79 9.216 99.2 8.704-27.878 19.994-54.477 38.554-77.517 47.258-58.701 122.112-66.33 192.486-70.272 20.634-1.178 20.557 30.822 0.051 31.974z" />
<glyph unicode="&#xe60c;" glyph-name="battle-rope-low-alt-wave" d="M581.376 652.211c0-36.491-29.582-66.074-66.074-66.074s-66.074 29.582-66.074 66.074c0 36.491 29.582 66.074 66.074 66.074s66.074-29.582 66.074-66.074zM899.891 394.419c-63.334-34.125-130.355-62.95-199.834-26.112-45.901 24.346-69.453 74.112-111.872 101.094-8.934 5.683-17.741 8.678-26.496 10.317l-92.698 83.866-51.379 78.771-184.243-120.192 1.587-2.432-3.379 1.434-45.466-107.981-0.87 0.051-9.498-162.842 53.606-3.123 8.832 151.194 29.773 70.707 21.069-32.307 19.2 12.518 30.131-70.528 29.44-125.44 52.275 12.262-28.723 122.368 1.229 0.538-38.682 90.573 74.598 48.666 67.686-61.235c-9.651-4.608-19.277-9.779-28.902-14.797-18.253-9.523-2.099-37.171 16.154-27.622 3.814 1.997 7.347 3.533 10.931 5.146 1.997-0.819 4.301-1.28 6.989-1.101 46.387 3.123 81.971-19.84 104.090-56.934 7.706-12.928 11.546-32.282 17.485-45.722 13.312-30.106 29.875-60.493 54.784-82.739 54.81-48.973 127.565-46.72 196.608-41.19 20.378 1.638 20.557 33.638 0 32-59.11-4.736-125.235-9.83-173.978 31.795-32.973 28.16-46.515 68.275-60.698 107.597 3.84-3.354 7.782-6.682 11.955-9.984 20.378-16.077 42.854-30.925 67.789-39.014 69.683-22.63 136.422 10.317 196.634 42.752 18.15 9.779 2.022 37.427-16.128 27.648z" />
<glyph unicode="&#xe60d;" glyph-name="battle-rope-power-slam" d="M559.053 668.058c0-36.491-29.582-66.074-66.074-66.074s-66.074 29.582-66.074 66.074c0 36.491 29.582 66.074 66.074 66.074s66.074-29.582 66.074-66.074zM735.667 564.48c15.002 45.696-16.947 78.874-45.082 112.179-2.611 3.098-5.581 4.352-8.576 4.838l-20.429 21.222-137.088-131.917-95.744 22.989-46.285-192.768-41.728-99.098-0.87 0.051-9.498-162.842 53.606-3.123 8.832 151.194 34.022 80.819 0.077-0.026 25.805-6.195 40.243-94.208 29.44-125.44 52.275 12.262-28.723 122.368 1.229 0.538-57.395 134.4 16 66.586 170.931 164.454c42.138-58.829 6.195-94.771-24.832-152.627-16.333-30.438-28.672-61.568-30.413-96.384-3.456-70.042 41.523-124.467 84.787-174.413 13.517-15.59 36.070 7.117 22.63 22.63-50.022 57.728-86.707 112.794-67.558 193.331 11.75 49.357 59.008 82.509 74.342 129.178z" />
<glyph unicode="&#xe60e;" glyph-name="battle-rope-side-slam" d="M484.787 687.514c0-36.491-29.582-66.074-66.074-66.074s-66.074 29.582-66.074 66.074c0 36.491 29.582 66.074 66.074 66.074s66.074-29.582 66.074-66.074zM721.075 197.274c-62.771 32.102-121.088 63.795-134.118 139.827-9.037 52.762 14.618 98.637 16.691 149.888 1.152 28.39-8.371 47.539-24.064 62.746l1.101 15.718-23.834 1.664c-10.445 6.554-21.965 12.621-34.202 18.842-6.579 3.354-12.8 1.818-17.331-1.792l-41.805 21.069 0.128 2.56-97.997 5.171-12.134-230.016 26.547-1.408v-239.13h53.683v236.314l17.766-0.947 8.909 168.883 61.696-31.104 0.077 0.128 40.474-2.816c4.198-9.19 6.861-20.301 7.117-34.765 0.358-20.531-10.88-48.435-13.798-68.992-4.25-30.080-5.99-60.262 0.691-90.138 17.178-76.928 82.406-115.686 148.25-149.35 18.304-9.344 34.509 18.253 16.154 27.648z" />
<glyph unicode="&#xe60f;" glyph-name="battle-rope-snakes-floor" d="M645.043 563.686c15.744 45.286-16.051 79.642-43.085 113.050-12.954 16.026-35.456-6.758-22.63-22.63 7.885-32.922 15.795-65.843 23.68-98.765-6.042-8.499-12.109-16.998-18.15-25.498-11.213-23.475-29.21-42.854-39.757-67.098-11.546-26.598-20.326-53.939-19.098-83.482 2.611-63.386 43.802-113.997 82.458-160.589 13.158-15.872 35.686 6.886 22.63 22.63-56.346 67.866-87.475 127.846-51.968 219.597 14.618 37.734 52.71 64.768 65.92 102.784zM426.010 654.106c7.885-32.922 15.795-65.843 23.68-98.765-6.042-8.499-12.109-16.998-18.15-25.498-11.213-23.475-29.21-42.854-39.757-67.098-11.546-26.598-20.326-53.939-19.098-83.482 2.611-63.386 43.802-113.997 82.458-160.589 13.158-15.872 35.686 6.886 22.63 22.63-56.346 67.866-87.475 127.846-51.968 219.597 14.592 37.734 52.685 64.768 65.894 102.784 15.744 45.286-16.051 79.642-43.085 113.050-12.928 16.026-35.43-6.758-22.605-22.63z" />
<glyph unicode="&#xe610;" glyph-name="bear-complex" d="M567.885 362.47c-20.787 14.387-38.835 28.006-75.213 66.406s-77.594 10.394-95.206 0.794-22.502-42.982-54.4-53.99c-33.613-11.597-55.194-23.603-55.194-23.603-8.781-2.893-11.213-44.006-9.6-65.101 1.587-21.094 22.4-41.293 46.387-54.093s92.8-16 121.6-7.987 60.8 12.8 88.013 6.4 39.987-39.091 64-39.194 38.4 12.006 46.387 34.406 7.194 35.994-7.194 69.606-48.768 51.942-69.581 66.355zM319.078 448.538c5.606 25.933 5.606 48.333-4.813 59.546s-23.322 17.613-36.454 12.8c-13.133-4.813-21.683-14.746-22.733-20.787 0 0-7.194-35.072 0-51.533s22.4-34.074 33.587-32.461 24.832 6.502 30.413 32.435zM365.491 492.877c16-6.4 35.994-16.794 48.794 0s10.394 45.594 12.8 63.206c2.406 17.613 7.987 39.987 8.806 52.787s0.794 21.606-6.4 23.194-38.4-0.794-51.994-23.194-28.006-46.387-30.413-67.994c0 0 2.406-41.6 18.406-48zM530.278 504.858c15.206 14.387 31.206 32 32 62.413s-0.794 45.594-9.6 52.787-24.013 11.213-31.206 4.813-31.206-19.994-38.4-35.994-13.594-51.2 10.394-88.806c4.685-7.296 21.632-9.6 36.813 4.787zM571.878 437.658c7.194-10.394 26.394-20.787 40.806-15.206s23.194 12.518 31.206 29.875c7.987 17.331 14.131 44.544 5.862 64.538s-20.275 28.006-37.069 22.4-42.035-17.408-50.227-55.501c0 0 2.227-35.686 9.421-46.106zM704.691 443.264c-12.8 0.794-25.6-8.806-40.806-22.374s-25.626-33.562-24.806-48.819c2.406-44.006 29.594-56.013 41.6-56.013s29.594 5.606 41.6 19.2 10.394 35.994 13.594 64-18.381 43.213-31.181 44.006zM302.285 537.677c0 0 2.406 24.013 0 34.406s-2.406 18.406-7.194 9.6-15.309-32.512-17.254-40.653c-1.946-8.166 14.054-0.154 24.448-3.354zM439.526 656c0 0 4.326 23.731 2.79 34.278-1.536 10.573-0.896 18.534-6.4 10.163s-17.894-31.155-20.506-39.117c-2.586-7.987 14.003-1.306 24.115-5.325zM567.526 648.781c0 0 4.326 23.731 2.79 34.278-1.536 10.573-0.896 18.534-6.4 10.163s-17.894-31.155-20.506-39.117c-2.586-7.962 14.003-1.28 24.115-5.325zM678.067 584.525c0 0 4.326 23.731 2.79 34.278s-0.896 18.534-6.4 10.163c-5.504-8.371-17.894-31.155-20.506-39.117s14.003-1.28 24.115-5.325zM767.155 502.195c-3.866 9.933-5.018 17.869-8.499 8.474s-10.47-34.381-11.213-42.726c-0.742-8.346 13.926 1.894 24.678 0.23 0-0.026-1.101 24.064-4.966 34.022z" />
<glyph unicode="&#xe611;" glyph-name="bear-crawl-stairs-weighted" d="M391.296 266.624l32.819-4.173 25.574 200.704 41.216-5.888 6.758 47.334 35.61-4.992c0.384-9.779 2.688-19.635 7.654-28.826 17.357-32.102 57.446-44.032 89.549-26.675 15.437 8.346 26.086 22.016 31.155 37.478l45.21-6.349 7.475 53.171-59.264 8.32c-18.253 29.619-56.474 40.371-87.45 23.603-4.864-2.637-9.088-5.914-13.005-9.498l-49.357 6.938 0.051 0.358-155.418 22.17 0.026 0.179-12.39 1.587-52.557 7.501-0.102-0.794-0.589 0.077-5.094-40.013-1.408-9.702-7.194-50.432 0.896-0.128-44.493-349.286 65.638-8.346 44.39 348.288 47.181-6.733-25.702-201.677 32.819-4.198zM776.627 458.035h-123.75v-108.416h-137.421v-132.173h-139.904v-128.461h40.525v87.45h140.8v132.224h138.675v108.442h181.325v40.934z" />
<glyph unicode="&#xe612;" glyph-name="bear-crawl-weighted" d="M738.688 398.925l21.76 16.333-133.555 178.022-43.52-32.64 133.581-178.048zM817.664 220.518l-36.019 47.795c8.038 33.843-11.392 68.48-45.158 78.541-5.299 1.587-10.624 2.253-15.898 2.483l-30.003 39.808 0.307 0.23-94.208 125.594 0.154 0.102-7.629 9.856-31.872 42.47-0.64-0.486-0.358 0.486-31.846-24.653-48.614-36.48 0.538-0.742-278.477-215.501 40.499-52.326 277.658 214.886 28.595-38.118-160.794-124.442 40.499-52.326 160 123.827 24.986-33.306 38.246 28.698 21.632-28.723c-6.656-7.194-11.981-15.77-14.976-25.805-10.419-34.97 9.472-71.757 44.442-82.176 16.819-5.018 33.997-2.867 48.538 4.454l27.469-36.454 42.931 32.307z" />
<glyph unicode="&#xe613;" glyph-name="bear-crawl" d="M821.862 220.518l-36.019 47.795c8.038 33.843-11.392 68.48-45.158 78.541-5.299 1.587-10.624 2.253-15.898 2.483l-30.003 39.808 0.307 0.23-94.208 125.594 0.154 0.102-7.603 9.83-31.898 42.496-0.64-0.486-0.358 0.486-31.872-24.653-7.859-5.914-40.73-30.566 0.538-0.742-278.477-215.501 40.499-52.326 277.658 214.886 28.595-38.118-160.794-124.442 40.499-52.326 160 123.827 24.986-33.306 38.246 28.698 21.632-28.723c-6.656-7.194-11.981-15.77-14.976-25.805-10.419-34.97 9.472-71.757 44.442-82.176 16.819-5.018 33.997-2.867 48.538 4.454l27.469-36.454 42.931 32.307z" />
<glyph unicode="&#xe614;" glyph-name="bench-row" d="M717.773 366.080h-32.87l106.726 142.976-54.579 40.064 2.867 5.811-214.707 30.541 0.102 0.87-53.12 7.654-0.154-0.973-0.307 0.051-10.214-72.73h0.051l-13.568-93.952-36.096 0.333 0.256 26.496-55.885 0.512-0.742-77.261 55.885-0.538 0.256 26.496 99.43-0.922-0.23-26.496 55.885-0.538 0.333 37.965 0.128 12.826 0.256 26.496-55.885 0.538-0.256-26.496-9.165 0.077 12.16 84.198 162.893-31.693-83.354-111.642 0.922-0.666h-256.538v-151.245h22.323v109.952h240.128v-109.952h61.21v109.952h55.859v-109.952h22.323v151.27h-22.323zM445.389 559.872c0-36.491-29.582-66.074-66.074-66.074s-66.074 29.582-66.074 66.074c0 36.491 29.582 66.074 66.074 66.074s66.074-29.582 66.074-66.074z" />
<glyph unicode="&#xe615;" glyph-name="benchpress-decline" d="M153.446 641.536h29.158v-188.877h-29.158v188.877zM115.046 641.536h29.158v-188.877h-29.158v188.877zM879.821 641.536h29.158v-188.877h-29.158v188.877zM843.187 641.536h29.158v-188.877h-29.158v188.877zM804.787 561.664h-29.619v37.146h-29.158v-37.146h-463.77v37.146h-29.158v-37.146h-33.869v79.872h-29.158v-188.877h29.158v79.872h33.869v-278.067h29.158v278.067h31.411l17.869-147.046 3.533 0.87 98.253 24.474v-53.939h146.688v54.016l102.118-25.421 17.843 147.046h46.080v-278.067h29.158v278.067h29.619v-79.872h29.158v188.877h-29.158v-79.872zM636.083 453.402l-56.115 12.954v1.357h-9.216c-6.938 29.082-32.922 50.765-64.102 50.765s-57.19-21.683-64.102-50.765h-9.242v-1.28l-55.962-11.494-8.602 77.568h276.096l-8.755-79.104z" />
<glyph unicode="&#xe616;" glyph-name="benchpress-incline" d="M153.446 679.936h29.158v-188.877h-29.158v188.877zM115.046 679.936h29.158v-188.877h-29.158v188.877zM879.821 679.936h29.158v-188.877h-29.158v188.877zM843.187 679.936h29.158v-188.877h-29.158v188.877zM804.787 600.090h-29.619v37.146h-29.158v-37.146h-463.77v37.146h-29.158v-37.146h-33.869v79.872h-29.158v-188.877h29.158v79.872h33.869v-278.042h29.158v278.016h28.288l13.85-114.074 7.117-58.573 3.533 0.87 98.253 24.474v-207.59h146.688v207.667l102.118-25.421 20.941 172.646h42.982v-278.042h29.158v278.042h29.619v-79.872h29.158v188.877h-29.158v-79.846zM636.083 466.227l-56.115 12.954v1.382h-8.32c0.538 3.379 1.050 6.784 1.050 10.291 0 36.48-29.568 66.074-66.074 66.074s-66.074-29.568-66.074-66.074c0-3.533 0.512-6.912 1.050-10.291h-8.32v-1.28l-55.962-11.494-11.418 103.014-27.699 0.179h309.478l-11.597-104.755z" />
<glyph unicode="&#xe617;" glyph-name="benchpress" d="M153.446 641.536h29.158v-188.877h-29.158v188.877zM115.046 641.536h29.158v-188.877h-29.158v188.877zM879.821 641.536h29.158v-188.877h-29.158v188.877zM843.187 641.536h29.158v-188.877h-29.158v188.877zM804.787 561.664h-29.619v37.146h-29.158v-37.146h-463.77v37.146h-29.158v-37.146h-33.869v79.872h-29.158v-188.877h29.158v79.872h33.869v-278.067h29.158v278.067h28.288l20.966-172.646 3.533 0.87 98.253 24.474v-89.651h146.688v89.728l102.118-25.421 20.941 172.646h42.982v-278.067h29.158v278.067h29.619v-79.872h29.158v188.877h-29.158v-79.872zM636.083 427.802l-56.115 12.954v1.357h-9.216c-6.938 29.082-32.922 50.765-64.102 50.765s-57.19-21.683-64.102-50.765h-9.242v-1.28l-55.962-11.494-11.418 103.014-27.699 0.179h309.453l-11.597-104.73z" />
<glyph unicode="&#xe618;" glyph-name="bent-over-row" d="M614.17 662.477c0-36.491-29.582-66.074-66.074-66.074s-66.074 29.582-66.074 66.074c0 36.491 29.582 66.074 66.074 66.074s66.074-29.582 66.074-66.074zM630.246 477.594c-17.050 9.856-36.070 12.723-54.144 10.086l-36.762 61.594 12.595 21.811-84.966 49.126-115.302-199.398 3.405-1.971v-242.816h53.683v211.763l27.853-16.102 71.91 124.39 19.507-32.691c-4.813-4.915-9.267-10.291-12.877-16.512-23.27-40.269-9.498-91.776 30.746-115.046 40.269-23.27 91.776-9.523 115.046 30.746 23.322 40.243 9.549 91.75-30.694 115.021z" />
<glyph unicode="&#xe619;" glyph-name="biking" d="M541.389 355.84l-45.875 90.112 88.755 71.45 48.896-57.242v-0.154h0.128l0.333-0.384 0.461 0.384 120.166-0.384 0.179 53.683-96.333 0.307-56.986 66.765-7.808 9.702-31.949 39.654-171.315-137.958 59.546-73.958 36.122-70.938-21.734-102.502 52.531-11.11 25.498 120.294 0.435 0.23-0.282 0.538 0.282 1.28zM726.758 629.734c0-36.491-29.582-66.074-66.074-66.074s-66.074 29.582-66.074 66.074c0 36.491 29.582 66.074 66.074 66.074s66.074-29.582 66.074-66.074zM835.43 323.686c0-68.204-55.29-123.494-123.494-123.494s-123.494 55.29-123.494 123.494c0 68.204 55.29 123.494 123.494 123.494s123.494-55.29 123.494-123.494zM435.558 323.686c0-68.204-55.29-123.494-123.494-123.494s-123.494 55.29-123.494 123.494c0 68.204 55.29 123.494 123.494 123.494s123.494-55.29 123.494-123.494z" />
<glyph unicode="&#xe61a;" glyph-name="box-jump-over" d="M606.080 535.757l198.093-20.915 5.632 53.376-278.733 29.44-11.264 2.483-37.581-170.138 0.947-0.205-14.874-42.65 123.008-42.906-7.936-169.933 53.632-2.509 0.589 12.314 27.494-1.28 8.448 181.146-3.328 0.154-89.395 57.267zM650.445 664.934c0-36.491-29.582-66.074-66.074-66.074s-66.074 29.582-66.074 66.074c0 36.491 29.582 66.074 66.074 66.074s66.074-29.582 66.074-66.074zM215.834 218.675h201.037v-53.683h-201.037v53.683zM215.834 293.222h201.037v-53.683h-201.037v53.683zM214.195 373.478h201.037v-53.683h-201.037v53.683z" />
<glyph unicode="&#xe61b;" glyph-name="box-jump" d="M438.554 376.013l-12.39 2.739-0.179 1.382-3.789-0.512-45.875 10.138 36.506 165.248-22.81 5.043 191.104 144.538-32.384 42.829-106.496-80.563c-8.090 18.918-24.755 33.869-46.387 38.656-35.635 7.885-70.886-14.618-78.771-50.253-5.581-25.318 4.326-50.253 23.219-65.51l-19.123-14.464-4.147 0.922-48.102-217.651 0.333-0.077 6.886-52.224 123.059 16.23-31.616-143.13 52.429-11.597 5.862 26.547 26.214-5.786 39.117 177.075-52.429 11.597-0.23-1.178zM554.035 281.728h201.037v-53.683h-201.037v53.683zM554.035 356.275h201.037v-53.683h-201.037v53.683zM554.035 202.291h201.037v-53.683h-201.037v53.683z" />
<glyph unicode="&#xe61c;" glyph-name="bulgarian-squat" d="M713.754 176.179l53.478 4.71-14.234 161.638-6.502-0.589-82.304 83.789 53.376 151.962-96.102 33.741-63.053-179.482-68.198-48.742-0.179 0.384-172.058-50.278 19.482-42.854h-114.893v-114.432h22.349v73.114h234.061v-73.114h22.323v114.432h-136.269l139.315 40.704 1.126-1.997 5.53 3.942 1.766 0.512-0.256 0.563 77.286 55.245 6.81-2.406 46.31-16.256 58.982-60.058zM762.035 669.798c0-36.491-29.582-66.074-66.074-66.074s-66.074 29.582-66.074 66.074c0 36.491 29.582 66.074 66.074 66.074s66.074-29.582 66.074-66.074z" />
<glyph unicode="&#xe61d;" glyph-name="burpee-bar-muscleup-weighted" d="M841.139 106.675h-55.885v-26.496h-16.998l-12.006 72.73 0.614 0.102-17.203 100.403-243.814-41.805 5.914-34.509-56.525-4.89 99.84 124.467-76.544 61.389-72.243-90.061v205.542h-70.81l-7.68 23.757c10.112-6.272 21.914-10.061 34.688-10.061 36.48 0 66.074 29.568 66.074 66.074s-29.568 66.074-66.074 66.074c-18.867 0-35.789-8.013-47.821-20.685l23.168 78.566c24.653 1.562 44.237 21.862 44.237 46.925 0 26.086-21.146 47.232-47.232 47.232s-47.206-21.146-47.206-47.232c0-5.862 1.203-11.418 3.174-16.614l-41.011-139.162-1.254-0.41 0.589-1.818-1.254-4.275 2.918-0.87 53.658-165.965v-235.93l-52.813-4.557 0.026-0.307-36.813-0.64 1.664-95.437 53.683 0.947-0.538 30.566 253.338 21.914 0.077-0.435 5.197 0.896 8.141 0.691-0.051 0.691 176.998 30.362 10.522-63.642h-28.058v26.496h-55.885v-77.286h55.885v26.496h99.456v-26.496h55.885v77.261zM621.184 387.584c0-36.491-29.582-66.074-66.074-66.074s-66.074 29.582-66.074 66.074c0 36.491 29.582 66.074 66.074 66.074s66.074-29.582 66.074-66.074zM890.547 225.69c0-36.491-29.582-66.074-66.074-66.074s-66.074 29.582-66.074 66.074c0 36.491 29.582 66.074 66.074 66.074s66.074-29.582 66.074-66.074z" />
<glyph unicode="&#xe61e;" glyph-name="burpee-bar-muscleup" d="M621.005 387.584c0-36.491-29.582-66.074-66.074-66.074s-66.074 29.582-66.074 66.074c0 36.491 29.582 66.074 66.074 66.074s66.074-29.582 66.074-66.074zM756.71 153.011l-17.203 100.403-243.814-41.805 5.914-34.509-56.525-4.89 99.84 124.467-76.544 61.389-72.243-90.061v205.542h-70.81l-7.68 23.757c10.112-6.272 21.914-10.061 34.688-10.061 36.48 0 66.074 29.568 66.074 66.074s-29.568 66.074-66.074 66.074c-18.867 0-35.789-8.013-47.821-20.685l23.168 78.566c24.653 1.562 44.237 21.862 44.237 46.925 0 26.086-21.146 47.232-47.232 47.232s-47.206-21.146-47.206-47.232c0-5.862 1.203-11.418 3.174-16.614l-41.037-139.187-1.254-0.41 0.589-1.818-1.254-4.275 2.918-0.87 53.658-165.965v-235.93l-52.813-4.557 0.026-0.307-36.813-0.64 1.664-95.437 53.683 0.947-0.538 30.566 253.338 21.914 0.077-0.435 5.197 0.896 8.141 0.691-0.051 0.691 176.998 30.362 17.664-106.88 52.966 8.755-17.715 107.213 0.614 0.102zM890.394 225.69c0-36.491-29.582-66.074-66.074-66.074s-66.074 29.582-66.074 66.074c0 36.491 29.582 66.074 66.074 66.074s66.074-29.582 66.074-66.074z" />
<glyph unicode="&#xe61f;" glyph-name="burpee-muscleup-weighted" d="M592.282 432.768c0-36.491-29.582-66.074-66.074-66.074s-66.074 29.582-66.074 66.074c0 36.491 29.582 66.074 66.074 66.074s66.074-29.582 66.074-66.074zM861.645 270.874c0-36.491-29.582-66.074-66.074-66.074s-66.074 29.582-66.074 66.074c0 36.491 29.582 66.074 66.074 66.074s66.074-29.582 66.074-66.074zM767.642 103.731h-24.704l-15.59 94.336 0.614 0.102-17.203 100.403-243.814-41.805 5.914-34.509-56.525-4.89 99.84 124.467-76.544 61.389-72.243-90.061v205.542h-83.021v26.854c10.982-8.166 24.474-13.158 39.219-13.158 36.48 0 66.074 29.568 66.074 66.074s-29.568 66.074-66.074 66.074c-14.746 0-28.237-4.992-39.219-13.158v61.44c21.171 10.086 35.917 31.514 35.917 56.525 0 34.662-28.109 62.771-62.771 62.771s-62.771-28.109-62.771-62.771c0-25.011 14.746-46.438 35.917-56.525v-273.331h34.842v-235.162l-52.762-4.582 0.026-0.307-36.813-0.64 2.406-138.086 53.683 0.947-1.28 73.242 253.338 21.914 0.077-0.435 5.197 0.896 8.141 0.691-0.051 0.691 176.998 30.362 14.080-85.274h-20.326v26.496h-55.885v-77.286h55.885v26.496h99.456v-26.496h55.885v77.286h-55.885v-26.522zM215.142 769.331c0 23.398 18.97 42.394 42.394 42.394s42.394-18.97 42.394-42.394-18.97-42.394-42.394-42.394-42.394 18.995-42.394 42.394z" />
<glyph unicode="&#xe620;" glyph-name="burpee-muscleup" d="M617.933 432.768c0-36.491-29.582-66.074-66.074-66.074s-66.074 29.582-66.074 66.074c0 36.491 29.582 66.074 66.074 66.074s66.074-29.582 66.074-66.074zM753.638 198.195l-17.203 100.403-243.814-41.805 5.914-34.509-56.525-4.89 99.84 124.467-76.544 61.389-72.243-90.061v205.542h-76.595v22.707c9.702-5.581 20.787-9.037 32.794-9.037 36.48 0 66.074 29.568 66.074 66.074s-29.568 66.074-66.074 66.074c-12.006 0-23.091-3.43-32.794-9.037v57.318c21.171 10.086 35.917 31.514 35.917 56.525 0 34.662-28.109 62.771-62.771 62.771s-62.771-28.109-62.771-62.771c0-25.011 14.746-46.438 35.917-56.525v-273.331h28.416v-235.162l-52.813-4.557 0.026-0.307-36.813-0.64 2.406-138.086 53.683 0.947-1.28 73.242 253.338 21.914 0.077-0.435 5.197 0.896 8.141 0.691-0.051 0.691 176.998 30.362 23.885-144.64 52.966 8.755-23.936 144.947 0.64 0.077zM247.219 769.331c0 23.398 18.97 42.394 42.394 42.394s42.394-18.97 42.394-42.394-18.97-42.394-42.394-42.394-42.394 18.995-42.394 42.394zM887.296 270.874c0-36.491-29.582-66.074-66.074-66.074s-66.074 29.582-66.074 66.074c0 36.491 29.582 66.074 66.074 66.074s66.074-29.582 66.074-66.074z" />
<glyph unicode="&#xe621;" glyph-name="burpee-pullup-weighted" d="M597.12 411.341c0-36.491-29.582-66.074-66.074-66.074s-66.074 29.582-66.074 66.074c0 36.491 29.582 66.074 66.074 66.074s66.074-29.582 66.074-66.074zM866.483 249.446c0-36.491-29.582-66.074-66.074-66.074s-66.074 29.582-66.074 66.074c0 36.491 29.582 66.074 66.074 66.074s66.074-29.582 66.074-66.074zM828.339 108.826h-55.885v-26.496h-24.678l-15.59 94.336 0.614 0.102-17.203 100.403-243.814-41.805 5.914-34.509-56.525-4.89 99.84 124.467-76.544 61.389-72.243-90.061v205.542h-83.021v26.854c10.982-8.166 24.474-13.158 39.219-13.158 36.48 0 66.074 29.568 66.074 66.074s-29.568 66.074-66.074 66.074c-14.746 0-28.237-4.992-39.219-13.158v57.574c12.288 8.525 20.378 22.707 20.378 38.784 0 26.086-21.146 47.232-47.206 47.232-26.086 0-47.232-21.146-47.232-47.232 0-16.102 8.090-30.259 20.378-38.784v-269.466h34.842v-235.162l-52.813-4.557 0.026-0.307-36.813-0.64 2.406-138.086 53.683 0.947-1.28 73.242 253.338 21.914 0.077-0.435 5.222 0.896 8.115 0.691-0.051 0.691 176.998 30.362 14.080-85.274h-20.326v26.496h-55.885v-77.286h55.885v26.496h99.456v-26.496h55.885v77.235z" />
<glyph unicode="&#xe622;" glyph-name="burpee-pullup" d="M621.261 421.99c0-36.491-29.582-66.074-66.074-66.074s-66.074 29.582-66.074 66.074c0 36.491 29.582 66.074 66.074 66.074s66.074-29.582 66.074-66.074zM756.966 187.418l-17.203 100.403-243.814-41.805 5.914-34.509-56.525-4.89 99.84 124.467-76.57 61.389-72.243-90.061v205.542h-76.595v22.733c9.702-5.581 20.787-9.037 32.794-9.037 36.48 0 66.074 29.568 66.074 66.074 0 36.48-29.568 66.074-66.074 66.074-12.006 0-23.091-3.43-32.794-9.037v75.034c12.288 8.525 20.378 22.707 20.378 38.784 0 26.086-21.146 47.206-47.232 47.206s-47.206-21.12-47.206-47.206c0-16.102 8.090-30.259 20.378-38.784v-291.072h28.416v-235.162l-52.813-4.557 0.026-0.307-36.813-0.64 1.664-95.437 53.683 0.947-0.538 30.566 253.338 21.914 0.077-0.435 5.222 0.896 8.115 0.691-0.051 0.691 176.998 30.362 17.664-106.88 52.966 8.755-17.715 107.213 0.64 0.077zM890.624 260.096c0-36.491-29.582-66.074-66.074-66.074s-66.074 29.582-66.074 66.074c0 36.491 29.582 66.074 66.074 66.074s66.074-29.582 66.074-66.074z" />
<glyph unicode="&#xe623;" glyph-name="burpee-wall-ball" d="M602.752 391.578c0-36.491-29.582-66.074-66.074-66.074s-66.074 29.582-66.074 66.074c0 36.491 29.582 66.074 66.074 66.074s66.074-29.582 66.074-66.074zM738.458 157.005l-17.203 100.403-243.814-41.805 5.914-34.509-56.525-4.89 99.84 124.467-76.544 61.389-72.243-90.061v205.542h-41.984l5.402 14.413c33.024 3.661 58.829 31.334 58.829 65.331 0 17.254-6.758 32.819-17.613 44.595l58.010 154.65-50.278 18.867-57.062-152.115c-36.070-0.461-65.203-29.798-65.203-65.971 0-19.533 8.627-36.89 22.093-48.973l-11.546-30.771h-2.56v-6.81l-1.587-4.198 1.587-0.589v-302.797l-52.813-4.557 0.026-0.307-36.813-0.64 1.664-95.437 53.683 0.947-0.538 30.566 253.338 21.914 0.102-0.461 5.222 0.896 8.115 0.691-0.051 0.691 176.998 30.362 17.664-106.88 52.966 8.755-17.715 107.213 0.64 0.077zM872.115 229.683c0-36.491-29.582-66.074-66.074-66.074s-66.074 29.582-66.074 66.074c0 36.491 29.582 66.074 66.074 66.074s66.074-29.582 66.074-66.074zM760.704 766.49c0-38.584-31.278-69.862-69.862-69.862s-69.862 31.278-69.862 69.862c0 38.584 31.278 69.862 69.862 69.862s69.862-31.278 69.862-69.862z" />
<glyph unicode="&#xe624;" glyph-name="burpee-weighted" d="M599.475 498.714c0-36.491-29.582-66.074-66.074-66.074s-66.074 29.582-66.074 66.074c0 36.491 29.582 66.074 66.074 66.074s66.074-29.582 66.074-66.074zM868.838 336.794c0-36.491-29.582-66.074-66.074-66.074s-66.074 29.582-66.074 66.074c0 36.491 29.582 66.074 66.074 66.074s66.074-29.582 66.074-66.074zM396.851 664.422c0-36.491-29.582-66.074-66.074-66.074s-66.074 29.582-66.074 66.074c0 36.491 29.582 66.074 66.074 66.074s66.074-29.582 66.074-66.074zM774.81 169.677h-24.678l-15.59 94.336 0.614 0.128-8.602 50.202-8.602 50.176-243.814-41.805 5.914-34.509-56.525-4.89 99.84 124.467-76.544 61.414-72.243-90.061v205.517h-101.862v-314.368l-52.813-4.582 0.026-0.307-36.813-0.64 2.406-138.086 53.683 0.922-1.28 73.242 253.338 21.914 0.077-0.435 5.222 0.896 8.141 0.717-0.077 0.666 176.998 30.362 14.080-85.274h-20.326v26.496h-55.885v-77.261h55.885v26.47h99.43v-26.47h55.885v77.261h-55.885z" />
<glyph unicode="&#xe625;" glyph-name="burpee" d="M585.498 526.31c0-36.491-29.582-66.074-66.074-66.074s-66.074 29.582-66.074 66.074c0 36.491 29.582 66.074 66.074 66.074s66.074-29.582 66.074-66.074zM721.203 291.738l-8.627 50.202-8.602 50.202-243.814-41.83 5.914-34.509-56.499-4.89 99.814 124.467-76.544 61.414-72.243-90.061v205.517h-101.862v-314.368l-52.813-4.557 0.026-0.333-36.813-0.64 2.406-138.086 53.683 0.947-1.254 73.242 253.338 21.914 0.077-0.461 5.222 0.922 8.115 0.691-0.077 0.666 176.998 30.362 23.885-144.64 52.966 8.755-23.936 144.973zM854.861 364.416c0-36.491-29.582-66.074-66.074-66.074s-66.074 29.582-66.074 66.074c0 36.491 29.582 66.074 66.074 66.074s66.074-29.582 66.074-66.074zM382.874 692.019c0-36.491-29.582-66.074-66.074-66.074s-66.074 29.582-66.074 66.074c0 36.491 29.582 66.074 66.074 66.074s66.074-29.582 66.074-66.074z" />
<glyph unicode="&#xe626;" glyph-name="candlestick-single-leg" d="M839.757 396.646l-189.286 0.154v-0.538l-77.389-81.562-175.846 124.877 0.256 23.168c1.818 3.174 3.558 6.451 4.864 10.010 6.784 18.509 4.531 37.965-4.173 54.042l1.946 178.739-53.683 0.589-1.562-145.024c-28.595 1.971-56.243-14.643-66.586-42.88-12.544-34.253 5.043-72.218 39.296-84.762 8.55-3.123 17.306-4.378 25.856-3.968l-0.41-37.248 5.299-0.051-3.968-4.992 212.454-168.038 0.691 1.51 0.179-0.179 116.326 122.598 165.658-0.154 0.077 53.709z" />
<glyph unicode="&#xe627;" glyph-name="candlestick" d="M824.627 363.802l-189.286 0.154v-0.538l-77.389-81.562-5.632 3.994 89.318 94.157 165.658-0.154 0.051 53.683-189.286 0.154v-0.538l-109.978-115.942-126.003 89.472 0.256 23.168c1.818 3.174 3.558 6.451 4.864 10.010 6.784 18.509 4.531 37.965-4.173 54.042l1.92 178.765-53.632 0.614-1.562-145.024c-28.595 1.971-56.243-14.643-66.586-42.88-12.544-34.253 5.043-72.218 39.322-84.762 8.55-3.123 17.306-4.378 25.856-3.968l-0.41-37.222 5.299-0.051-3.968-4.992 212.454-168.038 0.691 1.51 0.179-0.179 116.326 122.598 165.658-0.154 0.051 53.683z" />
<glyph unicode="&#xe628;" glyph-name="clean-atlas-stone" d="M612.506 520.115l58.88 19.456-16.845 50.97-0.23-0.077-16.691 17.28c6.374 10.163 10.214 22.093 10.214 34.995 0 36.48-29.568 66.074-66.074 66.074-12.058 0-23.219-3.482-32.973-9.139l-39.526 40.909c-12.39 29.261-41.37 49.792-75.136 49.792-45.056 0-81.562-36.531-81.562-81.562 0-24.038 10.573-45.414 27.11-60.339l0.026-75.136h-0.051l0.026-53.683 86.093 0.051v-192.973h-0.077v-221.107h53.683v221.107h39.347v-221.107h53.683v414.49zM433.459 573.363l-0.026 53.965c0.256 0 0.486-0.077 0.742-0.077 30.208 0 56.269 16.614 70.374 41.011l12.467-12.902c-0.794-4.096-1.28-8.294-1.28-12.595 0-36.48 29.568-66.074 66.074-66.074 3.507 0 6.861 0.512 10.214 1.024l4.147-4.301-162.714-0.051z" />
<glyph unicode="&#xe629;" glyph-name="clean-hang-power" d="M579.712 633.37c0-36.491-29.582-66.074-66.074-66.074s-66.074 29.582-66.074 66.074c0 36.491 29.582 66.074 66.074 66.074s66.074-29.582 66.074-66.074zM155.11 538.598h29.158v-188.877h-29.158v188.877zM116.71 538.598h29.158v-188.877h-29.158v188.877zM881.485 538.598h29.158v-188.877h-29.158v188.877zM844.877 538.598h29.158v-188.877h-29.158v188.877zM806.477 458.726h-113.613v94.234h-53.709v-94.234h-52.147v94.234h-146.662v-94.234h-52.48v94.234h-53.683v-94.234h-113.28v79.872h-29.158v-188.877h29.158v79.872h113.28v-1.715h53.683v1.715h52.48v-30.362h-52.48v-202.701h53.683v108.416h144.179v-108.416h53.709v202.701h-52.429v30.362h52.147v-1.715h53.709v1.715h113.613v-79.872h29.158v188.877h-29.158z" />
<glyph unicode="&#xe62a;" glyph-name="clean-hang-squat" d="M566.323 607.77c0-36.491-29.582-66.074-66.074-66.074s-66.074 29.582-66.074 66.074c0 36.491 29.582 66.074 66.074 66.074s66.074-29.582 66.074-66.074zM141.722 512.998h29.158v-188.877h-29.158v188.877zM103.322 512.998h29.158v-188.877h-29.158v188.877zM868.096 512.998h29.158v-188.877h-29.158v188.877zM831.462 512.998h29.158v-188.877h-29.158v188.877zM793.062 433.126h-113.613v94.234h-53.683v-94.208h-52.147v94.208h-252.851v-94.208h-113.28v79.872h-29.158v-188.877h29.158v79.872h113.28v-1.69h53.683v1.69h52.48v-30.362h-52.48v-140.365h53.683v46.106h144.179v-46.106h53.683v140.365h-52.403v30.362h52.147v-1.69h53.683v1.69h113.613v-79.872h29.158v188.877h-29.158v-79.898zM374.451 433.126v40.525h52.48v-40.525h-52.48z" />
<glyph unicode="&#xe62b;" glyph-name="clean-high-hang-power" d="M584.781 580.454c0-36.491-29.582-66.074-66.074-66.074s-66.074 29.582-66.074 66.074c0 36.491 29.582 66.074 66.074 66.074s66.074-29.582 66.074-66.074zM160.179 588.058h29.158v-188.877h-29.158v188.877zM121.779 588.058h29.158v-188.877h-29.158v188.877zM886.554 588.058h29.158v-188.877h-29.158v188.877zM849.946 588.058h29.158v-188.877h-29.158v188.877zM811.546 508.211h-585.6v79.846h-29.133v-188.851h29.133v79.846h113.306v-104.090h53.683v71.373h52.48v-106.394h-52.48v-228.531h53.683v140.621h144.179v-140.621h53.709v228.531h-52.429v139.11h52.147v-104.090h53.709v104.090h113.613v-79.846h29.133v188.851h-29.133z" />
<glyph unicode="&#xe62c;" glyph-name="clean-high-hang-snatch" d="M599.962 580.454c0-36.491-29.582-66.074-66.074-66.074s-66.074 29.582-66.074 66.074c0 36.491 29.582 66.074 66.074 66.074s66.074-29.582 66.074-66.074zM175.36 588.058h29.158v-188.877h-29.158v188.877zM136.96 588.058h29.158v-188.877h-29.158v188.877zM901.734 588.058h29.158v-188.877h-29.158v188.877zM865.126 588.058h29.158v-188.877h-29.158v188.877zM826.726 508.211h-585.6v79.846h-29.133v-188.851h29.133v79.846h113.306v-104.090h53.683v71.373h52.48v-100.045h-52.48v-140.365h53.683v46.106h144.179v-46.106h53.709v140.365h-52.429v132.762h52.147v-104.090h53.709v104.090h113.613v-79.846h29.133v188.851h-29.133z" />
<glyph unicode="&#xe62d;" glyph-name="clean-high-pull" d="M549.914 607.77c0-36.491-29.582-66.074-66.074-66.074s-66.074 29.582-66.074 66.074c0 36.491 29.582 66.074 66.074 66.074s66.074-29.582 66.074-66.074zM125.312 607.437h29.158v-188.877h-29.158v188.877zM86.912 607.437h29.158v-188.877h-29.158v188.877zM851.686 607.437h29.158v-188.877h-29.158v188.877zM815.053 607.437h29.158v-188.877h-29.158v188.877zM776.653 527.565h-585.574v79.872h-29.158v-188.877h29.158v79.846h113.28v-96.128h53.709v96.128h52.48v-124.774h-52.48v-140.39h53.683v46.106h144.179v-46.106h53.683v140.39h-52.403v124.774h52.147v-96.128h53.683v96.128h113.613v-79.846h29.158v188.877h-29.158z" />
<glyph unicode="&#xe62e;" glyph-name="clean-jerk-hang-power" d="M520.141 240.333l-69.197 86.733v12.006h-223.232v-201.472h53.683v147.789h134.118l71.322-89.421 2.176 1.766-0.922-2.304 182.605-74.701 20.352 49.69zM390.733 532.096c1.971 0 3.814 0.41 5.76 0.589l-1.664-14.259h-47.872v-141.517h101.888v140.902l16.896 144.102c47.744 4.531 85.248 44.288 85.248 93.235 0 51.994-42.138 94.131-94.131 94.131s-94.131-42.138-94.131-94.131c0-36.019 20.454-66.944 50.176-82.765l-1.382-11.802c-6.554 2.176-13.44 3.635-20.736 3.635-36.48 0-66.074-29.568-66.074-66.074s29.542-66.048 66.022-66.048z" />
<glyph unicode="&#xe62f;" glyph-name="clean-jerk-hang-squat" d="M503.117 285.389v232.397l16.896 144.102c47.744 4.531 85.248 44.288 85.248 93.235 0 51.994-42.138 94.131-94.131 94.131s-94.131-42.138-94.131-94.131c0-36.019 20.454-66.944 50.176-82.765l-1.382-11.802c-6.554 2.176-13.44 3.635-20.736 3.635-36.48 0-66.074-29.568-66.074-66.074s29.568-66.074 66.074-66.074c1.971 0 3.814 0.41 5.76 0.589l-1.664-14.259h-47.872v-179.302h-119.219v-201.498h53.683v147.789h167.373zM574.438 240.333l-32.179 40.346-41.984-33.485 40.858-51.226 2.202 1.766-0.947-2.304 182.63-74.701 20.326 49.69z" />
<glyph unicode="&#xe630;" glyph-name="clean-jerk-high-pull" d="M444.595 517.811l16.896 144.102c47.744 4.531 85.248 44.288 85.248 93.235 0 51.994-42.138 94.131-94.131 94.131s-94.131-42.138-94.131-94.131c0-36.019 20.454-66.944 50.176-82.765l-1.382-11.802c-6.554 2.176-13.44 3.635-20.736 3.635-36.48 0-66.074-29.568-66.074-66.074s29.568-66.074 66.074-66.074c1.971 0 3.814 0.41 5.76 0.589l-1.664-14.259h-47.872v-141.517h101.888v140.928zM277.197 339.072h-53.683v-201.472h53.683v147.789h65.536v53.683h-65.536zM515.917 240.333l-69.171 86.733v12.006h-48.333v-53.683h12.877l71.322-89.421 2.202 1.766-0.947-2.304 182.63-74.701 20.326 49.69z" />
<glyph unicode="&#xe631;" glyph-name="clean-jerk-power" d="M471.117 517.811l16.896 144.102c47.744 4.531 85.248 44.288 85.248 93.235 0 51.994-42.138 94.131-94.131 94.131s-94.131-42.138-94.131-94.131c0-36.019 20.454-66.944 50.176-82.765l-1.382-11.802c-6.554 2.176-13.44 3.635-20.736 3.635-36.48 0-66.074-29.568-66.074-66.074s29.568-66.074 66.074-66.074c1.971 0 3.814 0.41 5.76 0.589l-1.664-14.259h-47.872v-233.011h101.888v232.422zM250.010 339.072v-201.472h53.709v147.789h29.773v53.683h-29.773zM542.438 240.333l-32.179 40.346-41.984-33.485 40.858-51.226 2.202 1.766-0.947-2.304 182.63-74.701 20.326 49.69z" />
<glyph unicode="&#xe632;" glyph-name="clean-jerk-squat" d="M292.685 285.389v0-147.789h53.683v147.789h27.059v53.709h-80.742zM585.114 240.333l-71.322 89.421v188.058l16.896 144.102c47.744 4.531 85.248 44.288 85.248 93.235 0 51.994-42.138 94.131-94.131 94.131s-94.131-42.138-94.131-94.131c0-36.019 20.454-66.944 50.176-82.765l-1.382-11.802c-6.554 2.176-13.44 3.635-20.736 3.635-36.48 0-66.074-29.568-66.074-66.074s29.568-66.074 66.074-66.074c1.971 0 3.814 0.41 5.76 0.589l-1.664-14.259h-47.872v-233.011h68.582l71.322-89.421 2.202 1.741-0.947-2.304 182.63-74.701 20.326 49.69-170.957 69.939z" />
<glyph unicode="&#xe633;" glyph-name="clean-jerk" d="M572.749 203.341l-71.322 89.421v188.032l16.896 144.102c47.744 4.531 85.248 44.288 85.248 93.235 0 51.994-42.138 94.131-94.131 94.131s-94.131-42.138-94.131-94.131c0-36.019 20.454-66.944 50.176-82.765l-1.382-11.802c-6.554 2.176-13.44 3.635-20.736 3.635-36.48 0-66.074-29.568-66.074-66.074s29.568-66.074 66.074-66.074c1.971 0 3.814 0.41 5.76 0.589l-1.664-14.259h-47.872v-179.302h-119.219v-201.472h53.683v147.789h134.118l71.322-89.421 2.202 1.741-0.947-2.304 182.63-74.701 20.326 49.69-170.957 69.939z" />
<glyph unicode="&#xe634;" glyph-name="clean-medball" d="M637.773 413.568v125.056h-47.386c3.354 9.062 5.453 18.739 5.453 28.979 0 46.31-37.53 83.84-83.84 83.84s-83.84-37.53-83.84-83.84c0-10.24 2.099-19.917 5.453-28.979h-47.386v-125.056h52.48v-28.646h-52.48v-140.365h53.683v46.106h144.179v-46.106h53.683v140.365h-52.403v28.646h52.403z" />
<glyph unicode="&#xe635;" glyph-name="clean-overhead-hang-power" d="M152.55 418.56h29.158v-117.427h-29.158v117.427zM842.291 418.56h29.158v-117.427h-29.158v117.427zM803.891 374.426h-132.122l-86.042 226.125v1.587h-146.688v-2.355l-85.734-225.357h-134.989v79.872h-29.158v-188.877h29.158v79.872h220.698v-210.944h53.683v210.944h39.373v-210.944h53.683v210.944h218.138v-79.872h29.158v188.877h-29.158v-79.872zM614.349 374.426h-28.595v75.136l28.595-75.136zM439.091 448.794v-74.368h-28.288l28.288 74.368zM578.458 685.312c0-36.491-29.582-66.074-66.074-66.074s-66.074 29.582-66.074 66.074c0 36.491 29.582 66.074 66.074 66.074s66.074-29.582 66.074-66.074z" />
<glyph unicode="&#xe636;" glyph-name="clean-overhead-hang-squat" d="M164.070 423.706h29.158v-117.427h-29.158v117.427zM853.811 423.706h29.158v-117.427h-29.158v117.427zM815.411 379.571h-132.122l-86.042 226.125v1.587h-146.688v-2.355l-85.734-225.357h-134.989v79.872h-29.158v-188.877h29.158v79.872h220.698v-130.406h53.683v130.406h39.373v-130.406h53.683v130.406h218.138v-79.872h29.158v188.877h-29.158v-79.872zM625.843 379.571h-28.595v75.136l28.595-75.136zM450.586 453.939v-74.368h-28.288l28.288 74.368zM589.978 690.458c0-36.491-29.582-66.074-66.074-66.074s-66.074 29.582-66.074 66.074c0 36.491 29.582 66.074 66.074 66.074s66.074-29.582 66.074-66.074z" />
<glyph unicode="&#xe637;" glyph-name="clean-overhead-high-hang-power" d="M153.318 418.56h29.158v-117.427h-29.158v117.427zM843.059 418.56h29.158v-117.427h-29.158v117.427zM804.659 374.426h-132.122l-86.042 226.125v1.587h-146.688v-2.355l-85.734-225.357h-134.989v79.872h-29.158v-188.877h29.158v79.872h313.754v-210.944h53.683v210.944h218.138v-79.872h29.158v188.877h-29.158v-79.872zM615.117 374.426h-28.595v75.136l28.595-75.136zM439.834 448.794v-74.368h-28.288l28.288 74.368zM439.782 305.69h53.683v-171.366h-53.683v171.366zM579.226 685.312c0-36.491-29.582-66.074-66.074-66.074s-66.074 29.582-66.074 66.074c0 36.491 29.582 66.074 66.074 66.074s66.074-29.582 66.074-66.074z" />
<glyph unicode="&#xe638;" glyph-name="clean-overhead-high-hang-squat" d="M374.758 304.333h53.683v-165.453h-53.683v165.453zM567.936 556.416c0-36.491-29.582-66.074-66.074-66.074s-66.074 29.582-66.074 66.074c0 36.491 29.582 66.074 66.074 66.074s66.074-29.582 66.074-66.074zM141.286 721.408h29.158v-117.427h-29.158v117.427zM831.053 721.408h29.158v-117.427h-29.158v117.427zM792.653 677.248h-166.989l-0.563 0.205-0.077-0.205h-417.946v79.872h-29.158v-188.877h29.158v79.872h119.45l102.016-268.083v-136.422h145.843v-102.989h53.683v165.453h-52.838v89.344l96.154 252.723h121.293v-79.872h29.158v188.851h-29.158v-79.872zM546.842 471.808h-95.795l-67.072 176.307h229.939l-67.072-176.307z" />
<glyph unicode="&#xe639;" glyph-name="clean-overhead-high-pull" d="M582.426 471.808h-146.662v-228.224h145.818v-102.989h53.683v165.453h-52.838zM381.978 304.333h53.683v-165.453h-53.683v165.453zM575.155 556.416c0-36.491-29.582-66.074-66.074-66.074s-66.074 29.582-66.074 66.074c0 36.491 29.582 66.074 66.074 66.074s66.074-29.582 66.074-66.074zM148.531 721.408h29.158v-117.427h-29.158v117.427zM838.272 721.408h29.158v-117.427h-29.158v117.427zM799.872 677.248h-141.389l-0.563 0.23-0.077-0.23h-443.546v79.872h-29.158v-188.877h29.158v79.872h99.763l57.6-151.373 50.176 19.098-50.33 132.275h275.226l-50.33-132.275 50.202-19.098 57.574 151.373h95.693v-79.872h29.158v188.877h-29.158z" />
<glyph unicode="&#xe63a;" glyph-name="clean-overhead-power" d="M431.36 250.496h53.683v-187.878h-53.683v187.878zM524.416 283.699h53.683v-221.082h-53.683v221.082zM570.829 596.531c0-36.491-29.582-66.074-66.074-66.074s-66.074 29.582-66.074 66.074c0 36.491 29.582 66.074 66.074 66.074s66.074-29.582 66.074-66.074zM144.179 761.523h29.158v-117.427h-29.158v117.427zM833.946 761.523h29.158v-117.427h-29.158v117.427zM795.546 717.363h-166.989l-0.563 0.205-0.077-0.205h-417.946v79.872h-29.158v-188.877h29.158v79.872h119.45l101.99-268.083v-136.422h146.688v151.782l96.154 252.723h121.293v-79.872h29.158v188.877h-29.158v-79.872zM549.734 511.923h-95.795l-67.072 176.307h229.939l-67.072-176.307z" />
<glyph unicode="&#xe63b;" glyph-name="clean-overhead-squat" d="M375.782 304.333h53.683v-165.453h-53.683v165.453zM568.934 556.416c0-36.491-29.582-66.074-66.074-66.074s-66.074 29.582-66.074 66.074c0 36.491 29.582 66.074 66.074 66.074s66.074-29.582 66.074-66.074zM142.31 721.408h29.158v-117.427h-29.158v117.427zM832.051 721.408h29.158v-117.427h-29.158v117.427zM793.651 677.248h-166.989l-0.563 0.205-0.077-0.205h-417.946v79.872h-29.158v-188.877h29.158v79.872h119.45l101.99-268.083v-136.422h145.843v-102.989h53.683v165.453h-52.864v89.344l96.154 252.723h121.293v-79.872h29.158v188.851h-29.158v-79.872zM547.84 471.808h-95.795l-67.072 176.307h229.939l-67.072-176.307z" />
<glyph unicode="&#xe63c;" glyph-name="clean-overhead" d="M456.653 283.162h53.683v-221.082h-53.683v221.082zM549.709 283.162h53.683v-221.082h-53.683v221.082zM596.147 595.994c0-36.491-29.582-66.074-66.074-66.074s-66.074 29.582-66.074 66.074c0 36.491 29.582 66.074 66.074 66.074s66.074-29.582 66.074-66.074zM169.498 760.986h29.158v-117.427h-29.158v117.427zM859.264 760.986h29.158v-117.427h-29.158v117.427zM820.864 716.826h-166.989l-0.589 0.23-0.077-0.205h-417.946v79.872h-29.133v-188.877h29.133v79.872h119.45l101.99-268.083v-136.422h146.688v151.731l96.154 252.749h121.293v-79.872h29.158v188.877h-29.158v-79.872zM575.027 511.386h-95.795l-67.072 176.307h229.939l-67.072-176.307z" />
<glyph unicode="&#xe63d;" glyph-name="clean-power" d="M565.069 633.37c0-36.491-29.582-66.074-66.074-66.074s-66.074 29.582-66.074 66.074c0 36.491 29.582 66.074 66.074 66.074s66.074-29.582 66.074-66.074zM140.467 584.858h29.158v-188.877h-29.158v188.877zM102.067 584.858h29.158v-188.877h-29.158v188.877zM866.816 584.858h29.158v-188.877h-29.158v188.877zM830.208 584.858h29.158v-188.877h-29.158v188.877zM791.808 504.986h-113.613v47.974h-53.683v-47.974h-52.147v47.974h-146.688v-47.974h-52.48v47.974h-53.683v-47.974h-113.28v79.872h-29.158v-188.877h29.158v79.846h113.28v-47.949h53.683v47.949h52.48v-76.595h-52.48v-202.701h53.683v108.416h144.205v-108.416h53.683v202.701h-52.403v76.595h52.147v-47.949h53.683v47.949h113.613v-79.846h29.158v188.877h-29.158z" />
<glyph unicode="&#xe63e;" glyph-name="clean-squat" d="M578.048 607.77c0-36.491-29.582-66.074-66.074-66.074s-66.074 29.582-66.074 66.074c0 36.491 29.582 66.074 66.074 66.074s66.074-29.582 66.074-66.074zM153.446 512.998h29.158v-188.877h-29.158v188.877zM115.046 512.998h29.158v-188.877h-29.158v188.877zM879.821 512.998h29.158v-188.877h-29.158v188.877zM843.187 512.998h29.158v-188.877h-29.158v188.877zM804.787 433.126h-113.613v94.234h-358.682v-94.208h-113.28v79.872h-29.158v-188.877h29.158v79.872h113.28v-1.69h53.683v1.69h52.48v-30.362h-52.48v-140.365h53.683v46.106h144.205v-46.106h53.683v140.365h-52.403v30.362h52.147v-1.69h53.683v1.69h113.613v-79.872h29.158v188.877h-29.158v-79.898zM386.176 433.126v40.525h52.48v-40.525h-52.48zM585.344 433.126v40.525h52.147v-40.525h-52.147z" />
<glyph unicode="&#xe63f;" glyph-name="clean" d="M578.048 607.77c0-36.491-29.582-66.074-66.074-66.074s-66.074 29.582-66.074 66.074c0 36.491 29.582 66.074 66.074 66.074s66.074-29.582 66.074-66.074zM153.446 411.034h29.158v-188.877h-29.158v188.877zM115.046 411.034h29.158v-188.877h-29.158v188.877zM879.821 411.034h29.158v-188.877h-29.158v188.877zM843.187 411.034h29.158v-188.877h-29.158v188.877zM804.787 331.162h-113.613v196.198h-358.656v-196.173h-113.306v79.872h-29.158v-188.877h29.158v79.872h166.963v-68.762h53.683v46.106h144.205v-46.106h53.683v68.762h167.040v-79.872h29.158v188.877h-29.158v-79.898zM637.491 373.632h-52.147v100.045h52.147v-100.045zM386.176 473.651h52.48v-100.045h-52.48v100.045z" />
<glyph unicode="&#xe640;" glyph-name="cuban-press" d="M742.861 765.184v-28.672h-121.958v28.672h-46.72v-86.477h46.72v28.672h33.715l0.691-120.525-72.755-25.318v18.611h-146.688v-16.691l-67.226 23.398 0.691 120.525h33.715v-28.672h41.626c-0.973-4.506-1.536-9.165-1.536-13.978 0-36.48 29.568-66.074 66.074-66.074s66.074 29.568 66.074 66.074-29.568 66.074-66.074 66.074c-26.291 0-48.794-15.462-59.418-37.683v72.064h-46.72v-28.672h-121.958v28.672h-46.694v-86.477h46.72v28.672h34.534l-0.947-160.282 4.864-0.026 116.301-40.499v-154.675h-0.077v-221.107h53.683v221.107h39.347v-221.107h53.683v373.862l121.83 42.419 4.864 0.026-0.947 160.282h34.534v-28.672h46.72v86.477h-46.669z" />
<glyph unicode="&#xe641;" glyph-name="curl-incline" d="M433.178 600.627c0-36.491-29.582-66.074-66.074-66.074s-66.074 29.582-66.074 66.074c0 36.491 29.582 66.074 66.074 66.074s66.074-29.582 66.074-66.074zM746.368 178.176l-7.962 130.304 1.254 1.613-116.403 90.803 16.563 21.606-196.275 150.579-62.003-80.794 1.306-0.998-3.584-22.042-78.157 60.032-25.165-32.768 0.461-0.358-0.435-344.755 22.323-0.026 0.461 327.603 73.037-56.090-7.578-46.669-0.026-0.026 0.026-0.026-0.026-0.102 0.077-0.026 52.224-88.96-24.832-5.683-5.914 25.83-54.477-12.493 17.254-75.341 54.477 12.493-5.914 25.83 96.922 22.221 5.914-25.83 54.477 12.493-4.454 19.482 44.186-33.92-0.128-100.71 25.984-0.026 0.179 133.478h-0.845l-191.642 147.174 3.584 22.093 146.586-112.461 5.146 6.707 91.034-71.014 6.502-106.394-0.154-18.688 103.782-0.794 0.205 26.368-37.99 0.282zM471.347 299.648l-49.971 85.12 69.581-53.427-8.32-1.894 5.914-25.83-17.203-3.968z" />
<glyph unicode="&#xe642;" glyph-name="curl-preacher" d="M523.52 684.851c0-36.491-29.582-66.074-66.074-66.074s-66.074 29.582-66.074 66.074c0 36.491 29.582 66.074 66.074 66.074s66.074-29.582 66.074-66.074zM723.251 608.742l-12.621-23.27-87.424 47.386 12.621 23.296-49.126 26.65-24.192-44.646-12.646-23.296 49.126-26.65 12.646 23.296 20.147-10.931-42.445-84.506-73.293 81.357 0.128 7.424-6.938 0.128-3.174 3.533-3.763-3.405-87.962 1.613-4.557-247.322 34.995-0.64-26.266-256.666h-1.126l0.102-29.312 98.739 0.282-0.077 29.312-31.078-0.077 26.112 255.232h0.435l0.102 5.274 0.845 8.115-0.691 0.077 2.714 147.814 27.29-30.285v-133.914h26.931v-281.83h40.090v281.83h26.931v134.426l43.187 85.939 20.045-10.88-12.646-23.27 49.126-26.65 36.838 67.942z" />
<glyph unicode="&#xe643;" glyph-name="curl-seated" d="M554.931 661.811c0-36.491-29.582-66.074-66.074-66.074s-66.074 29.582-66.074 66.074c0 36.491 29.582 66.074 66.074 66.074s66.074-29.582 66.074-66.074zM825.677 166.554l-0.333 28.39-52.198-0.614-17.741 219.392-25.421-2.048-14.592 2.483 16.742 98.022 26.112-4.454 9.421 55.091-76.16 13.005-9.421-55.091 26.112-4.454-2.688-15.77-92.237 11.52-64.256 68.326v2.509h-2.355l-0.077 0.077-0.077-0.077-99.354 0.102-0.179-237.466 50.995-0.051 196.71-1.485 14.387-178.074 0.947 0.077v-0.742l115.661 1.331zM588.211 460.288l0.691 0.666 107.546-13.44-4.992-29.261-26.112 4.454-2.125-12.365-114.355 0.87 0.077 90.829 39.27-41.754zM642.56 316.416h-379.52v-151.245h22.323v109.952h357.197v-109.952h22.323v151.245h-22.323z" />
<glyph unicode="&#xe644;" glyph-name="curl-standing" d="M433.51 115.789h98.739v-29.312h-98.739v29.312zM539.597 698.394c0-36.491-29.582-66.074-66.074-66.074s-66.074 29.582-66.074 66.074c0 36.491 29.582 66.074 66.074 66.074s66.074-29.582 66.074-66.074zM702.874 419.814l24.218 50.355-69.632 33.51-24.243-50.381 23.885-11.469-9.933-20.659-73.933 32.742-15.898 166.784-25.062-2.406v0.102l-101.862 1.869-4.557-247.322 35.021-0.64-26.598-259.763 65.843-6.733 27.162 265.267h0.435l0.102 5.274 0.819 8.115-0.691 0.077 0.563 30.464 95.36-42.24-9.882-20.557-23.885 11.494-24.218-50.355 69.632-33.51 24.243 50.355-23.885 11.494 43.11 89.6z" />
<glyph unicode="&#xe645;" glyph-name="curl" d="M517.478 689.050c0-36.491-29.582-66.074-66.074-66.074s-66.074 29.582-66.074 66.074c0 36.491 29.582 66.074 66.074 66.074s66.074-29.582 66.074-66.074zM705.818 522.266l-21.043-16.077-60.365 79.027 21.043 16.077-33.92 44.416-61.414-46.925 33.92-44.39 21.069 16.077 13.926-18.227-73.344-59.75-35.661 110.746 0.128 5.811-1.997 0.026-0.589 1.843-5.376-1.715-93.901 1.715-4.557-247.322 35.021-0.666-26.266-256.64h-1.126l0.077-29.312 98.739 0.282-0.077 29.312-31.078-0.102 26.112 255.258 0.461-0.026 0.077 5.299 0.845 8.115-0.691 0.077 1.152 62.336 5.734-17.843 51.123 16.461-0.486 1.485 88.269 71.91 13.85-18.099-21.069-16.102 33.92-44.39 61.414 46.899z" />
<glyph unicode="&#xe646;" glyph-name="curtis-p" d="M692.352 227.2l-97.203 33.434-42.368 112.102v131.866c29.85 15.795 50.432 46.771 50.432 82.893 0 33.408-17.536 62.566-43.776 79.283-6.144 30.131-32.794 52.787-64.717 52.787-36.48 0-66.074-29.568-66.074-66.074 0-5.018 0.666-9.856 1.741-14.566-9.677-14.797-15.437-32.435-15.437-51.43 0-29.901 14.208-56.243 35.968-73.472v-119.578h-119.219v-201.472h53.683v147.763h122.112l45.85-121.318-0.384-1.050 0.87-0.307 0.051-0.128 0.179 0.077 120.832-41.574 17.459 50.765z" />
<glyph unicode="&#xe647;" glyph-name="d-snatch-one" d="M380.482 308.35l-53.672 0.993 3.416 184.616 53.672-0.993-3.416-184.616zM629.786 702.464v86.477h-46.72v-28.672h-121.958v28.672h-46.72v-86.477h46.72v28.672h48.512l19.891-114.534c-11.955 16.922-31.59 28.058-53.888 28.058-36.48 0-66.074-29.568-66.074-66.074s29.568-66.074 66.074-66.074c11.955 0 23.014 3.43 32.691 8.96l-9.805-27.52h-96.23v-228.198h-0.102v-221.107h53.683v221.107h39.347v-221.107h53.683v430.95l39.501 110.925 0.742 0.128-25.037 144.486h18.97v-28.672h46.72z" />
<glyph unicode="&#xe648;" glyph-name="d-snatch-two" d="M791.398 789.709v-28.646h-121.958v28.646h-46.72v-86.477h46.72v28.672h24.115l-117.658-176.307h-126.157l-117.658 176.307h22.477v-28.672h46.72v86.477h-46.72v-28.646h-121.958v28.646h-46.72v-86.477h46.72v28.672h36.352l-0.973-0.64 171.494-257.050v-146.842h-0.051v-221.082h53.683v221.082h39.347v-221.082h53.709v367.923l171.494 257.050-0.973 0.64h34.714v-28.672h46.72v86.477zM578.893 640.205c0-36.491-29.582-66.074-66.074-66.074s-66.074 29.582-66.074 66.074c0 36.491 29.582 66.074 66.074 66.074s66.074-29.582 66.074-66.074z" />
<glyph unicode="&#xe649;" glyph-name="d-snatch" d="M608.435 475.622l39.501 110.95 0.742 0.128-20.096 115.789h15.77v86.451h-46.72v-28.672h-121.958v28.672h-46.72v-86.477h13.952l-18.278-105.267 0.742-0.128 36.71-103.117h-0.358v-228.198h-0.077v-221.107h53.683v221.107h39.347v-221.107h53.683v430.976zM597.658 731.136v-28.672h10.778l-33.331-5.786 13.901-80.077c-11.955 16.922-31.59 28.058-53.888 28.058-21.35 0-40.141-10.317-52.224-26.035l15.386 88.576-22.554 3.917v20.019h121.933zM510.822 517.274c7.526-2.995 15.693-4.736 24.269-4.736 11.955 0 23.014 3.43 32.691 8.96l-9.805-27.52h-38.861l-8.294 23.296z" />
<glyph unicode="&#xe64a;" glyph-name="deadlift-clean" d="M153.446 480.026h29.158v-188.877h-29.158v188.877zM115.046 480.026h29.158v-188.877h-29.158v188.877zM879.821 480.026h29.158v-188.877h-29.158v188.877zM843.187 480.026h29.158v-188.877h-29.158v188.877zM804.787 400.154h-140.211v218.394h-113.51c16.256 12.032 26.957 31.206 26.957 52.992 0 36.48-29.568 66.074-66.074 66.074s-66.074-29.568-66.074-66.074c0-21.786 10.675-40.96 26.957-52.992h-113.51v-218.394h-140.109v79.872h-29.158v-188.877h29.158v79.872h219.392v-212.634h53.683v201.139h39.347v-201.139h53.683v212.634h219.443v-79.872h29.158v188.877h-29.158v-79.872zM610.893 400.154h-25.574v164.71h25.574v-164.71zM413.030 564.864h25.626v-164.71h-25.626v164.71z" />
<glyph unicode="&#xe64b;" glyph-name="deadlift-halting" d="M578.048 645.555c0-36.491-29.582-66.074-66.074-66.074s-66.074 29.582-66.074 66.074c0 36.491 29.582 66.074 66.074 66.074s66.074-29.582 66.074-66.074zM153.446 419.2h29.158v-188.877h-29.158v188.877zM115.046 419.2h29.158v-188.877h-29.158v188.877zM879.821 419.2h29.158v-188.877h-29.158v188.877zM843.187 419.2h29.158v-188.877h-29.158v188.877zM804.787 339.328h-140.211v223.002h-305.229v-223.002h-140.134v79.872h-29.158v-188.877h29.158v79.872h219.392v-125.798h53.683v125.798h39.373v-125.798h53.683v125.798h219.443v-79.872h29.158v188.877h-29.158v-79.872zM413.030 339.328v169.318h25.626v-92.134h-0.077v-77.184h-25.549zM492.288 339.328v65.28h39.347v-65.28h-39.347zM585.344 404.634v104.038h25.574v-169.318h-25.574v65.28z" />
<glyph unicode="&#xe64c;" glyph-name="deadlift-snatch" d="M578.048 690.458c0-36.491-29.582-66.074-66.074-66.074s-66.074 29.582-66.074 66.074c0 36.491 29.582 66.074 66.074 66.074s66.074-29.582 66.074-66.074zM153.446 468.71h29.158v-188.877h-29.158v188.877zM115.046 468.71h29.158v-188.877h-29.158v188.877zM879.821 468.71h29.158v-188.877h-29.158v188.877zM843.187 468.71h29.158v-188.877h-29.158v188.877zM804.787 388.864h-46.771l-112.794 215.808v2.586h-276.301v-0.41l-0.794 0.41-114.125-218.394h-34.79v79.872h-29.158v-188.877h29.158v79.872h219.392v-220.237h53.683v220.237h39.373v-220.237h53.683v220.237h219.443v-79.872h29.158v188.877h-29.158v-79.872zM611.354 553.574l86.093-164.71h-112.102v164.71h26.010zM400.666 553.574h37.99v-164.71h-124.083l86.093 164.71z" />
<glyph unicode="&#xe64d;" glyph-name="deadlift" d="M578.048 690.458c0-36.491-29.582-66.074-66.074-66.074s-66.074 29.582-66.074 66.074c0 36.491 29.582 66.074 66.074 66.074s66.074-29.582 66.074-66.074zM153.446 468.71h29.158v-188.877h-29.158v188.877zM115.046 468.71h29.158v-188.877h-29.158v188.877zM879.821 468.71h29.158v-188.877h-29.158v188.877zM843.187 468.71h29.158v-188.877h-29.158v188.877zM804.787 388.864h-132.198v218.394h-53.683v-218.394h-33.562v218.394h-232.422v-218.394h-133.709v79.872h-29.158v-188.877h29.158v79.872h219.392v-220.237h53.683v220.237h39.373v-220.237h53.683v220.237h219.443v-79.872h29.158v188.877h-29.158v-79.872zM406.605 553.574h32.051v-164.71h-32.051v164.71z" />
<glyph unicode="&#xe64e;" glyph-name="dip-ring" d="M677.299 565.171v194.867h-23.475v-194.253c-5.146-0.794-10.138-2.022-14.771-3.994v38.835h-54.093v-22.528h-146.688v18.714h-52.634v-36.838c-4.454 2.227-9.114 4.045-14.080 5.146v194.918h-23.475v-194.253c-30.003-4.71-53.018-30.464-53.018-61.773 0-34.662 28.109-62.771 62.771-62.771 17.638 0 33.51 7.322 44.928 19.046h35.507v-110.362h-0.077v-221.107h53.683v221.107h39.347v-221.107h53.683v331.469h31.718v2.381c11.494-13.030 28.134-21.402 46.874-21.402 34.662 0 62.771 28.109 62.771 62.771 0.051 29.926-20.941 54.861-48.973 61.133zM357.888 461.645c-23.398 0-42.394 18.97-42.394 42.394s18.97 42.394 42.394 42.394 42.394-18.97 42.394-42.394-18.995-42.394-42.394-42.394zM616.704 545.357v3.174h2.662c-0.998-0.973-1.766-2.125-2.662-3.174zM663.578 461.645c-23.398 0-42.394 18.97-42.394 42.394s18.97 42.394 42.394 42.394 42.394-18.97 42.394-42.394-18.995-42.394-42.394-42.394zM575.232 662.912c0-36.491-29.582-66.074-66.074-66.074s-66.074 29.582-66.074 66.074c0 36.491 29.582 66.074 66.074 66.074s66.074-29.582 66.074-66.074z" />
<glyph unicode="&#xe64f;" glyph-name="dip" d="M573.926 695.936c0-36.491-29.582-66.074-66.074-66.074s-66.074 29.582-66.074 66.074c0 36.491 29.582 66.074 66.074 66.074s66.074-29.582 66.074-66.074zM656.026 585.293h-18.278v48.384h-54.093v-22.528h-139.597v18.714h-52.608v-44.57h-52.634v-451.302h29.158v359.322h68.992v-110.362h-0.051v-221.107h53.683v221.107h39.347v-221.107h53.709v331.469h72.371v-359.322h29.158v451.302z" />
<glyph unicode="&#xe650;" glyph-name="dive-bomber" d="M821.862 290.714l-36.019 47.795c8.038 33.843-11.392 68.48-45.158 78.541-5.299 1.587-10.624 2.253-15.898 2.483l-30.003 39.808 0.307 0.23-94.208 125.594 0.154 0.128-7.654 9.882-31.846 42.445-0.64-0.486-0.358 0.486-31.846-24.653-48.614-36.48 0.538-0.717-278.477-215.552 40.499-52.326 277.658 214.886 93.312-124.365 38.246 28.698 21.632-28.723c-6.656-7.194-11.981-15.77-14.976-25.805-10.419-34.97 9.472-71.757 44.442-82.176 16.819-5.018 33.997-2.867 48.538 4.454l27.469-36.454 42.906 32.307z" />
<glyph unicode="&#xe651;" glyph-name="double-under" d="M575.642 682.010c0-36.491-29.582-66.074-66.074-66.074s-66.074 29.582-66.074 66.074c0 36.491 29.582 66.074 66.074 66.074s66.074-29.582 66.074-66.074zM704.768 597.222h-405.069v-72.934c0-114.227 57.267-211.507 138.931-248.678v-127.667h53.683v112.563c6.477-0.742 13.030-1.229 19.686-1.229s13.184 0.486 19.661 1.229v-112.563h53.683v127.667c81.664 37.171 138.931 134.477 138.931 248.678v72.934h-19.507zM319.232 524.288v19.251h119.475v-174.515h-0.077v-73.011c-69.376 38.528-119.398 128.845-119.398 228.275zM512 276.25c-6.63 0-13.184 0.486-19.686 1.382v91.392h39.347v-91.392c-6.451-0.896-13.030-1.382-19.661-1.382zM704.768 524.288c0-99.43-50.022-189.722-119.398-228.275v247.526h119.398v-19.251z" />
<glyph unicode="&#xe652;" glyph-name="farmers-carry-backrack" d="M596.403 690.458c0-36.491-29.582-66.074-66.074-66.074s-66.074 29.582-66.074 66.074c0 36.491 29.582 66.074 66.074 66.074s66.074-29.582 66.074-66.074zM777.677 701.67h-148.429v-94.413h-197.862v94.413h-148.429v-154.547h121.574v-63.206h52.48v-123.341h-0.077v-221.107h53.709v221.107h39.347v-221.107h53.709v344.448h52.403v63.206h121.574z" />
<glyph unicode="&#xe653;" glyph-name="farmers-carry-frontrack" d="M549.555 607.104c10.931 11.776 17.741 27.443 17.741 44.774 0 36.48-29.568 66.074-66.074 66.074s-66.074-29.568-66.074-66.074c0-17.331 6.81-32.973 17.741-44.774h-78.669v-141.85h53.683v-143.283h-0.077v-221.107h53.683v221.107h39.347v-221.107h53.683v364.39h53.683v141.85h-78.669z" />
<glyph unicode="&#xe654;" glyph-name="farmers-carry-hanging" d="M417.562 607.258v-246.682h-0.077v-221.107h53.709v221.107h39.347v-221.107h53.683v467.789h-73.318zM338.227 437.837h-94.72v-154.547h148.429v323.968h-53.709zM556.928 690.458c0-36.491-29.582-66.074-66.074-66.074s-66.074 29.582-66.074 66.074c0 36.491 29.582 66.074 66.074 66.074s66.074-29.582 66.074-66.074zM643.482 437.837v169.421h-53.683v-323.968h148.429v154.547z" />
<glyph unicode="&#xe655;" glyph-name="farmers-carry-overhead" d="M565.197 651.878c0-36.491-29.582-66.074-66.074-66.074s-66.074 29.582-66.074 66.074c0 36.491 29.582 66.074 66.074 66.074s66.074-29.582 66.074-66.074zM672.998 764.698h-100.506v-196.019h-146.688v196.019h-100.506v-77.261h46.822v-181.453h53.683v-184.013h-0.051v-221.082h53.683v221.082h39.347v-221.082h53.709v405.094h53.683v181.453h46.822z" />
<glyph unicode="&#xe656;" glyph-name="farmers-carry" d="M587.674 607.258h-146.662v-246.682h-0.077v-221.107h53.709v221.107h39.347v-221.107h53.683v221.107zM361.677 607.258h53.683v-246.707h-53.683v246.707zM613.248 607.258h53.683v-246.707h-53.683v246.707zM580.378 690.458c0-36.491-29.582-66.074-66.074-66.074s-66.074 29.582-66.074 66.074c0 36.491 29.582 66.074 66.074 66.074s66.074-29.582 66.074-66.074zM640.102 327.296h201.037v-154.573h-201.037v154.573zM182.886 327.296h201.037v-154.573h-201.037v154.573z" />
<glyph unicode="&#xe657;" glyph-name="firemans-carry" d="M582.323 690.458c0-36.491-29.582-66.074-66.074-66.074s-66.074 29.582-66.074 66.074c0 36.491 29.582 66.074 66.074 66.074s66.074-29.582 66.074-66.074zM800.23 482.304l-117.376 63.693c13.901 15.181 20.608 36.531 16.026 58.214-7.552 35.686-42.598 58.522-78.31 50.97-25.242-5.35-43.802-24.55-49.971-47.898h-0.64l-20.531 11.136-0.87 4.147-72.32-15.309h-33.306v-7.040l-112.461-23.808 0.077-0.333-44.698-27.853 62.387-100.173-115.891-24.525 11.11-52.531 26.598 5.632 5.555-26.266 167.322 35.405v-25.216h-0.051v-221.107h53.683v221.107h39.347v-221.107h53.683v396.058l185.011-100.403 25.626 47.206zM441.907 440.448l-26.598-5.632-1.434 6.758 1.178 0.742-2.022 3.251-9.728 45.952 39.654 8.397v-64.358l-1.050 4.89z" />
<glyph unicode="&#xe658;" glyph-name="flip-back" d="M219.008 228.48h585.984v-29.158h-585.984v29.158zM728.576 637.389c0-36.491-29.582-66.074-66.074-66.074s-66.074 29.582-66.074 66.074c0 36.491 29.582 66.074 66.074 66.074s66.074-29.582 66.074-66.074zM278.016 351.334l53.222 7.194-13.005 96.358 164.224-44.774 2.406-2.611 147.149 134.042-0.205 0.205 0.205 0.128-56.166 73.779 0.282 0.205-99.123 129.818-42.675-32.563 50.995-66.816-0.179-0.154 56.883-74.726-102.989-93.824-128.614 35.046-0.077 0.589-1.382-0.179-0.666 0.179-0.077-0.282-51.098-6.912z" />
<glyph unicode="&#xe659;" glyph-name="flip-front" d="M219.008 222.771h585.984v-29.158h-585.984v29.158zM445.286 614.374l33.331 24.883 69.939-93.67-29.133-27.955-77.85 47.795-28.083-45.747 113.69-69.837 1.178 1.92 55.757 53.53 75.11 56.064-133.35 178.662-0.282-0.205-44.032 28.902-79.539-121.139-3.456-2.586 0.922-1.254-3.661-5.581-110.694-143.642 42.547-32.768zM732.16 470.144c0-36.491-29.582-66.074-66.074-66.074s-66.074 29.582-66.074 66.074c0 36.491 29.582 66.074 66.074 66.074s66.074-29.582 66.074-66.074z" />
<glyph unicode="&#xe65a;" glyph-name="flip-pig" d="M422.784 695.782c0-36.491-29.582-66.074-66.074-66.074s-66.074 29.582-66.074 66.074c0 36.491 29.582 66.074 66.074 66.074s66.074-29.582 66.074-66.074zM814.797 181.146l-23.834 69.427c12.288 25.062 15.027 54.835 5.222 83.328-9.779 28.493-30.234 50.304-55.322 62.541l-32.768 95.462c12.288 25.062 15.027 54.835 5.222 83.328-9.779 28.493-30.234 50.304-55.322 62.541l-35.226 102.579-136.781-46.976 9.242-26.957-127.667-62.592-73.626 17.69-50.534-210.458-0.614 0.026-0.102-3.021-0.102-0.435 0.102-0.026-3.507-114.79 0.563-0.026-3.046-126.976 53.683-1.28 3.891 163.072h-0.307l2.048 67.2 14.797-3.558 75.341-112.691-1.741-113.587 53.683-0.819 1.946 128.154 1.024 0.691-89.216 133.453 29.926 124.595 131.021 64.23 5.914-17.229c-17.101-26.982-22.682-60.954-11.494-93.542s36.454-55.962 66.534-66.739l27.827-81.075c-17.101-26.982-22.682-60.954-11.494-93.542s36.454-55.962 66.534-66.739l21.376-62.234 136.806 46.976z" />
<glyph unicode="&#xe65b;" glyph-name="flip-tire" d="M393.139 713.6c0-36.491-29.582-66.074-66.074-66.074s-66.074 29.582-66.074 66.074c0 36.491 29.582 66.074 66.074 66.074s66.074-29.582 66.074-66.074zM534.605 806.886l-17.050-97.971-0.333 0.691-179.302-87.936-73.626 17.69-50.534-210.458h-0.64l-0.077-2.995-0.102-0.435 0.077-0.026-3.507-114.816h0.563l-3.046-126.976 53.683-1.28 3.891 163.072h-0.307l2.048 67.2 14.797-3.558 75.341-112.691-1.741-113.587 53.683-0.819 1.971 128.128 1.024 0.691-89.216 133.453 29.926 124.595 154.24 75.622-73.037-420.122 252.621-43.904 101.248 582.528z" />
<glyph unicode="&#xe65c;" glyph-name="floor-press" d="M298.88 369.818c0-36.491-29.582-66.074-66.074-66.074s-66.074 29.582-66.074 66.074c0 36.491 29.582 66.074 66.074 66.074s66.074-29.582 66.074-66.074zM291.891 548.838l7.654 25.37 13.568-4.096-0.794-140.058h-0.64l0.026-50.918 0.026-50.944 247.373 0.128-0.026 35.021 260.224-21.658 0.026 0.307 36.403-5.581 20.89 136.525-53.069 8.115-11.085-72.397-253.414 21.094v0.435h-5.274l-8.141 0.691-0.051-0.691-179.584-0.102 0.691 123.878 28.058-8.448-7.654-25.37 53.53-16.128 22.272 74.010-53.504 16.102-7.629-25.37-95.232 28.698 7.654 25.37-53.504 16.128-14.669-48.614-7.629-25.37zM132.019 274.688h806.733v-29.158h-806.733v29.158z" />
<glyph unicode="&#xe65d;" glyph-name="ghd-extension" d="M867.917 375.066c0-36.491-29.582-66.074-66.074-66.074s-66.074 29.582-66.074 66.074c0 36.491 29.582 66.074 66.074 66.074s66.074-29.582 66.074-66.074zM403.533 485.453l92.006 7.962-10.778-20.634 56.96-29.773-18.97-38.118 165.555-82.406 23.91 48.051-1.408 0.717 40.371 77.261-218.266 114.022-0.051 0.538-0.794-0.077-0.154 0.077-0.026-0.102-128.358-11.085v124.211h-53.709v-128.87l-96.026-8.294 0.026-0.307-36.813-0.64 1.562-89.984 53.683 0.947-0.435 25.114 78.003 6.733v-231.731h-193.741v-29.158h585.984v29.158h-338.534z" />
<glyph unicode="&#xe65e;" glyph-name="ghd-medball" d="M841.216 553.37c0-36.491-29.582-66.074-66.074-66.074s-66.074 29.582-66.074 66.074c0 36.491 29.582 66.074 66.074 66.074s66.074-29.582 66.074-66.074zM359.27 428.8l115.738-3.354 16.333-38.298 227.584 96.973-39.936 93.696-61.722-26.291-0.205 38.758c17.024 9.446 28.672 27.366 28.672 48.205 0 30.566-24.781 55.322-55.322 55.322s-55.322-24.781-55.322-55.322c0-20.685 11.494-38.502 28.288-48l0.333-61.798-87.066-37.094-117.35 3.405v46.643h-53.683v-45.082l-82.586 2.406-0.998 25.088-53.658-2.125 3.584-89.907 36.787 1.459v-0.307l96.87-2.816v-237.312h-147.226v-29.158h585.984v29.158h-385.101v235.75z" />
<glyph unicode="&#xe65f;" glyph-name="ghd-press" d="M882.048 553.37c0-36.491-29.582-66.074-66.074-66.074s-66.074 29.582-66.074 66.074c0 36.491 29.582 66.074 66.074 66.074s66.074-29.582 66.074-66.074zM400.102 428.8l115.738-3.354 16.333-38.298 227.584 96.973-26.317 61.722-12.109 105.6c12.211 10.138 20.122 25.242 20.122 42.368 0 30.566-24.781 55.322-55.322 55.322-30.566 0-55.322-24.781-55.322-55.322 0-24.32 15.795-44.749 37.606-52.147l9.37-81.741-160.307-68.326-117.35 3.405v46.643h-53.683v-45.082l-82.586 2.406-0.998 25.088-53.658-2.125 3.584-89.907 36.787 1.459v-0.307l96.87-2.816v-237.312h-147.226v-29.158h585.984v29.158h-385.101v235.75z" />
<glyph unicode="&#xe660;" glyph-name="ghd-situp" d="M853.402 609.69c0-36.491-29.582-66.074-66.074-66.074s-66.074 29.582-66.074 66.074c0 36.491 29.582 66.074 66.074 66.074s66.074-29.582 66.074-66.074zM371.456 485.12l115.738-3.354 16.307-38.298 227.584 96.973-34.176 80.205 1.459 0.589-20.096 49.792-171.494-69.171 15.923-39.501-33.894-14.438-117.35 3.405v46.643h-53.709v-45.082l-82.56 2.406-0.998 25.088-53.658-2.125 3.584-89.907 36.787 1.459v-0.307l96.845-2.816v-237.312h-147.174v-29.158h585.984v29.158h-385.101z" />
<glyph unicode="&#xe661;" glyph-name="ground-overhead" d="M625.126 721.664c0 51.994-42.138 94.131-94.131 94.131s-94.131-42.138-94.131-94.131c0-36.019 20.454-66.944 50.176-82.765l-1.382-11.802c-6.554 2.176-13.44 3.635-20.736 3.635-36.48 0-66.074-29.568-66.074-66.074s29.568-66.074 66.074-66.074c1.971 0 3.814 0.41 5.76 0.589l-1.664-14.259h-47.872v-194.15h43.802v-210.56h53.683v210.56h4.378v193.562l16.896 144.102c47.744 4.557 85.222 44.314 85.222 93.235z" />
<glyph unicode="&#xe662;" glyph-name="handstand-deficit-push-ups" d="M531.584 783.36h53.683v-200.064h-53.683v200.064zM438.528 783.36h53.683v-200.064h-53.683v200.064zM577.971 253.389c0-36.491-29.582-66.074-66.074-66.074s-66.074 29.582-66.074 66.074c0 36.491 29.582 66.074 66.074 66.074s66.074-29.582 66.074-66.074zM625.843 139.494h117.146v-26.854h-117.146v26.854zM625.843 173.619h117.146v-26.854h-117.146v26.854zM711.27 208.666v86.426h-0.896l0.077 0.077-125.235 114.176v173.952h-146.688v-174.182l-124.979-113.946 0.077-0.077h-0.896v-86.426h-31.744v-26.854h117.171v26.854h-31.744v62.029l72.269 65.894 146.534 0.102 72.371-65.997v-62.029h-31.744v-26.854h117.171v26.854zM280.986 139.494h117.146v-26.854h-117.146v26.854zM280.986 173.619h117.146v-26.854h-117.146v26.854z" />
<glyph unicode="&#xe663;" glyph-name="handstand-one" d="M586.701 500.275l155.315 193.715-41.882 33.587-157.056-195.866-56.013 21.299-80.589 235.93-50.816-17.357 83.891-245.581-50.074-131.584-32.435 44.006 57.216 42.163-31.846 43.213-100.429-73.984 84.557-114.765 0.666 0.819-0.41-1.050 98.816-37.581v-190.182h53.683v216.090zM450.688 252.979c0-36.491-29.582-66.074-66.074-66.074s-66.074 29.582-66.074 66.074c0 36.491 29.582 66.074 66.074 66.074s66.074-29.582 66.074-66.074z" />
<glyph unicode="&#xe664;" glyph-name="handstand-push-ups-parrallete" d="M578.893 264.064c0-36.491-29.582-66.074-66.074-66.074s-66.074 29.582-66.074 66.074c0 36.491 29.582 66.074 66.074 66.074s66.074-29.582 66.074-66.074zM675.302 128.819v69.171h13.414v86.426h-0.384l-102.195 161.101v148.454h0.051v200.064h-53.683v-200.064h-39.347v200.064h-53.709v-346.214l-0.077 0.051-103.706-163.456h-0.384v-86.426h13.414v-69.171h-45.158v-26.854h117.146v26.854h-45.133v69.171h13.414v70.221l50.483 79.565v-0.512h145.434l50.15-79.053v-70.221h13.414v-69.171h-45.133v-26.854h117.146v26.854z" />
<glyph unicode="&#xe665;" glyph-name="handstand-pushups" d="M578.893 220.902c0-36.491-29.582-66.074-66.074-66.074s-66.074 29.582-66.074 66.074c0 36.491 29.582 66.074 66.074 66.074s66.074-29.582 66.074-66.074zM688.333 241.254l-102.195 161.101v148.454h0.051v221.082h-53.683v-221.082h-39.347v221.082h-53.709v-367.232l-0.077 0.051-103.706-163.456h-0.384v-117.146h53.683v100.941l50.483 79.565v-0.512h145.434l50.15-79.053v-100.941h53.683v117.146z" />
<glyph unicode="&#xe666;" glyph-name="handstand-walk" d="M452.224 541.722h-39.347v221.107h-53.683v-367.232l-0.102 0.051-103.706-163.456h-0.384v-117.146h53.683v100.915l50.509 79.59v-0.512h146.662v246.682h0.077v221.107h-53.709zM531.482 375.578h53.683v-246.707h-53.683v246.707zM498.637 211.84c0-36.491-29.582-66.074-66.074-66.074s-66.074 29.582-66.074 66.074c0 36.491 29.582 66.074 66.074 66.074s66.074-29.582 66.074-66.074z" />
<glyph unicode="&#xe667;" glyph-name="handstand" d="M531.686 543.872h-39.373v221.107h-53.683v-467.789h146.662v246.682h0.077v221.107h-53.683zM610.944 377.728h53.683v-246.707h-53.683v246.707zM359.373 377.728h53.683v-246.707h-53.683v246.707zM578.074 213.99c0-36.491-29.582-66.074-66.074-66.074s-66.074 29.582-66.074 66.074c0 36.491 29.582 66.074 66.074 66.074s66.074-29.582 66.074-66.074z" />
<glyph unicode="&#xe668;" glyph-name="hang-arch" d="M804.992 816.256v29.158h-585.984v-29.158h253.901l26.342-236.134-28.339 0.998-8.602-247.219 9.421-0.333-68.531-251.418 63.846-17.408 72.653 266.47 24.448-0.845 8.602 247.219-19.226 0.666-1.997 17.946c19.072-6.477 40.806-4.403 58.701 7.91 30.054 20.685 37.658 61.824 16.973 91.878-20.019 29.082-59.11 36.89-88.858 18.611l-11.341 101.658h277.99z" />
<glyph unicode="&#xe669;" glyph-name="hang-hip-touch" d="M560.308 96.011l-32.123 218.738 53.114 7.8 32.123-218.738-53.114-7.8zM793.318 752v0h-585.958v-585.984h29.158v556.851h276.506l8.755-59.699c-11.213 27.494-39.91 45.005-70.605 40.499-36.096-5.299-61.056-38.861-55.757-74.957s38.861-61.056 74.957-55.757c30.694 4.506 53.146 29.517 55.987 59.085l9.805-66.739-135.808-19.942 2.816-19.226-25.83-3.789-1.434 4.582-51.2-16.128 74.086-235.315 39.322 12.39 30.157-205.363 53.12 7.808-32.128 218.752 92.058 13.517-24.704 168.243 43.827 6.426-33.152 225.613h196.89v-556.826h29.158v585.958zM393.677 470.451l17.306 2.534 15.821-107.699-33.126 105.165z" />
<glyph unicode="&#xe66a;" glyph-name="hang-hollow" d="M800.333 758.528v29.133h-294.502l-0.41 0.486-0.589-0.486h-290.483v-29.133h254.746l-5.274-4.301 134.989-165.504-24.55-0.845 8.115-233.523-105.574-217.626 59.546-28.877 114.099 235.162 34.227 1.203-8.602 247.219-9.882-0.333-10.547 12.928c12.749 4.48 24.294 12.698 32.563 24.704 20.685 30.054 13.082 71.194-16.973 91.878s-71.194 13.082-91.878-16.973c-0.794-1.152-1.28-2.432-1.997-3.635l-47.744 58.522h270.72z" />
<glyph unicode="&#xe66b;" glyph-name="hang" d="M422.272 348.544h53.683v-221.082h-53.683v221.082zM515.302 348.544h53.683v-221.082h-53.683v221.082zM759.706 783.462h-556.826v-585.984h29.158v556.826h151.398v-232.192h38.912v-173.594h146.688v173.594h38.835v0.077h1.254v232.115h150.605v-556.826h29.158v585.984h-29.184zM555.392 595.226h-118.272v53.12c10.982-21.274 32.922-35.994 58.522-35.994 26.547 0 49.254 15.744 59.776 38.323v-55.45zM555.392 706.176c-10.496 22.579-33.229 38.323-59.776 38.323-25.6 0-47.539-14.72-58.522-35.994v45.798h118.272v-48.128z" />
<glyph unicode="&#xe66c;" glyph-name="hollow-rock" d="M599.782 351.002l266.547 72.397-17.357 63.846-238.771-64.845 4.25 29.107-239.616 34.97-6.733-46.131-13.44 5.453c11.674 19.328 13.363 44.006 1.92 65.331-17.254 32.154-57.318 44.237-89.446 26.982-17.485-9.395-28.774-25.574-32.896-43.52l-56.397 22.861-20.173-49.766 103.066-41.779c8.166-5.683 17.408-9.421 27.162-11.008l73.472-29.773 0.128 0.333 234.163-34.176 0.358-1.357 3.123 0.845 0.614-0.102 0.026 0.333z" />
<glyph unicode="&#xe66d;" glyph-name="iditarod" d="M653.824 395.776l35.354 137.037 182.093 23.322-6.81 53.248-169.882-21.76-90.47 23.322-32-124.083-310.4-83.635v50.15h-29.133v-228.71h-79.872v-29.158h188.877v29.158h-79.846v148.352l302.029 81.382-10.726-41.626-127.77-232.55 47.053-25.856 121.037 220.288 112.563-87.066-55.296-100.634 47.053-25.856 76.851 139.878-0.768 0.435 0.768 0.998-120.704 93.363zM599.066 385.126l0.691-0.179-2.739-3.533 2.048 3.712zM739.43 675.507c0-36.491-29.582-66.074-66.074-66.074s-66.074 29.582-66.074 66.074c0 36.491 29.582 66.074 66.074 66.074s66.074-29.582 66.074-66.074zM152.73 186.317h188.877v-29.158h-188.877v29.158z" />
<glyph unicode="&#xe66e;" glyph-name="jerk-push" d="M649.856 726.605c0 51.994-42.138 94.131-94.131 94.131s-94.131-42.138-94.131-94.131c0-36.019 20.454-66.944 50.176-82.765l-1.382-11.802c-6.554 2.176-13.44 3.635-20.736 3.635-36.48 0-66.074-29.568-66.074-66.074s29.568-66.074 66.074-66.074c1.971 0 3.814 0.41 5.76 0.589l-1.664-14.259h-47.872v-178.432h30.643l-102.349-121.344 136.115-114.842 34.611 41.037-95.078 80.205 96.947 114.918h0.973v177.843l16.896 144.102c47.744 4.582 85.222 44.314 85.222 93.261z" />
<glyph unicode="&#xe66f;" glyph-name="jerk-rack" d="M671.232 127.77l-112.179 206.387 0.538 0.64h0.973v177.818l16.896 144.102c47.744 4.531 85.248 44.288 85.248 93.235 0 51.994-42.138 94.131-94.131 94.131s-94.131-42.138-94.131-94.131c0-36.019 20.454-66.944 50.176-82.765l-1.382-11.802c-6.554 2.176-13.44 3.635-20.736 3.635-36.48 0-66.074-29.568-66.074-66.074s29.568-66.074 66.074-66.074c1.971 0 3.814 0.41 5.76 0.589l-1.664-14.259h-47.872v-178.432h30.643l-102.374-121.344 101.555-85.683h-240.384v716.339h-29.158v-745.472h585.984v29.158h-133.76zM462.643 219.853l59.264 70.246 88.243-162.33h-62.438l10.035 11.878-95.104 80.205z" />
<glyph unicode="&#xe670;" glyph-name="jerk-split" d="M671.232 104.422l-112.179 206.387 0.538 0.64h0.973v177.818l16.896 144.102c47.744 4.531 85.248 44.288 85.248 93.235 0 51.994-42.138 94.131-94.131 94.131s-94.131-42.138-94.131-94.131c0-36.019 20.454-66.944 50.176-82.765l-1.382-11.802c-6.554 2.176-13.44 3.635-20.736 3.635-36.48 0-66.074-29.568-66.074-66.074s29.568-66.074 66.074-66.074c1.971 0 3.814 0.41 5.76 0.589l-1.664-14.259h-47.872v-178.432h30.643l-102.349-121.344 101.555-85.683h-269.568v-29.158h585.984v29.158h-133.76zM462.643 196.506l59.264 70.246 88.243-162.33h-62.438l10.035 11.878-95.104 80.205z" />
<glyph unicode="&#xe671;" glyph-name="jump-broad" d="M614.81 543.334l-72.96 60.698-0.358 2.074-1.766-0.307-0.358 0.307-0.358-0.435-207.539-35.891 9.165-52.915 145.434 25.165-89.242-107.341 0.256-0.205-17.818-49.562 116.813-42.010-93.747-112.717 41.267-34.33 17.408 20.915 20.634-17.178 115.942 139.418-41.267 34.33-0.742-0.87-9.728 8.090 0.461 1.331-3.61 1.28-36.096 30.029zM692.531 634.061c0-36.491-29.582-66.074-66.074-66.074s-66.074 29.582-66.074 66.074c0 36.491 29.582 66.074 66.074 66.074s66.074-29.582 66.074-66.074z" />
<glyph unicode="&#xe672;" glyph-name="jump-tuck" d="M512.077 423.782l-0.486-0.256-1.152 0.256-0.205-0.973-58.214-30.336 21.325 96.538 209.024 30.285-7.706 53.146-181.606-26.317c10.24 8.96 17.946 20.992 21.12 35.302 7.885 35.635-14.618 70.886-50.253 78.771s-70.886-14.618-78.771-50.253c-6.81-30.848 9.19-61.363 36.736-74.112l-35.686-5.171-1.101 0.256-43.264-195.84-0.179-0.077 0.102-0.205-0.102-0.486 0.41-0.077 28.083-53.862 64.23 33.485 0.256-0.051 0.051 0.205 58.214 30.336-21.555-97.562 56.371-12.467 39.117 177.075-54.502 12.058-0.256 0.333z" />
<glyph unicode="&#xe673;" glyph-name="jump" d="M525.517 366.438l-12.39 2.739-0.179 1.382-3.789-0.512-45.875 10.138 36.506 165.248-22.81 5.043 191.078 144.538-32.384 42.829-106.496-80.563c-8.090 18.918-24.755 33.869-46.387 38.656-35.635 7.859-70.886-14.618-78.771-50.253-5.606-25.318 4.326-50.253 23.219-65.51l-19.123-14.464-4.147 0.922-48.102-217.651 0.333-0.077 6.886-52.224 123.059 16.23-31.616-143.13 52.429-11.571 5.862 26.547 26.214-5.786 39.117 177.075-52.429 11.571-0.205-1.178z" />
<glyph unicode="&#xe674;" glyph-name="k-snatch-one" d="M591.283 781.85c0-26.835-21.754-48.589-48.589-48.589s-48.589 21.754-48.589 48.589c0 26.835 21.754 48.589 48.589 48.589s48.589-21.754 48.589-48.589zM401.085 310.503l-53.672 0.993 3.416 184.616 53.672-0.993-3.416-184.616zM569.523 477.773l39.501 110.95 0.742 0.128-20.685 119.168-52.89-9.19 13.901-80.077c-11.955 16.922-31.59 28.058-53.888 28.058-36.48 0-66.074-29.568-66.074-66.074s29.568-66.074 66.074-66.074c11.955 0 23.014 3.43 32.691 8.96l-9.805-27.52h-96.23v-228.198h-0.077v-221.107h53.683v221.107h39.347v-221.107h53.683v430.976z" />
<glyph unicode="&#xe675;" glyph-name="k-snatch-two" d="M712.192 775.373l-137.114-205.466h-126.157l-137.114 205.466-44.646-29.798 171.494-257.024v-146.842h146.688v146.842l171.494 257.024zM256.998 696.627c0-19.228-15.588-34.816-34.816-34.816s-34.816 15.588-34.816 34.816c0 19.228 15.588 34.816 34.816 34.816s34.816-15.588 34.816-34.816zM836.634 696.627c0-19.228-15.588-34.816-34.816-34.816s-34.816 15.588-34.816 34.816c0 19.228 15.588 34.816 34.816 34.816s34.816-15.588 34.816-34.816zM438.605 341.709h53.683v-221.082h-53.683v221.082zM531.635 341.709h53.683v-221.082h-53.683v221.082zM578.074 654.541c0-36.491-29.582-66.074-66.074-66.074s-66.074 29.582-66.074 66.074c0 36.491 29.582 66.074 66.074 66.074s66.074-29.582 66.074-66.074z" />
<glyph unicode="&#xe676;" glyph-name="k-snatch" d="M571.11 754.458c0-26.835-21.754-48.589-48.589-48.589s-48.589 21.754-48.589 48.589c0 26.835 21.754 48.589 48.589 48.589s48.589-21.754 48.589-48.589zM584.115 475.622l39.501 110.95 0.742 0.128-20.685 119.168-52.89-9.19 13.901-80.077c-11.955 16.922-31.59 28.058-53.888 28.058-21.35 0-40.141-10.317-52.224-26.035l15.386 88.576-52.89 9.19-20.685-119.168 0.742-0.128 36.71-103.117h-0.358v-228.198h-0.077v-221.107h53.683v221.107h39.347v-221.107h53.683v430.95zM486.502 517.274c7.526-2.995 15.693-4.736 24.269-4.736 11.955 0 23.014 3.43 32.691 8.96l-9.805-27.52h-38.861l-8.294 23.296z" />
<glyph unicode="&#xe677;" glyph-name="knees-elbow" d="M683.622 183.885l-83.917 183.168-119.859-54.912 13.568 101.632 100.634 56.294-0.589 1.075 1.050 0.077-14.080 187.366-53.53-4.045 11.546-154.061-61.030-34.125-78.362 10.445-28.467-213.299 2.406-0.333-2.586-1.178 22.374-48.819 180.48 82.714 61.568-134.374zM472.525 551.859c0-36.491-29.582-66.074-66.074-66.074s-66.074 29.582-66.074 66.074c0 36.491 29.582 66.074 66.074 66.074s66.074-29.582 66.074-66.074zM574.080 708.019c0-14.605-11.84-26.445-26.445-26.445s-26.445 11.84-26.445 26.445c0 14.605 11.84 26.445 26.445 26.445s26.445-11.84 26.445-26.445z" />
<glyph unicode="&#xe678;" glyph-name="knees-to-elbow-strict" d="M615.885 335.872l-30.95 43.878-107.75-75.955-5.299 102.4 88.627 73.779-0.794 0.947 0.998 0.256-48.154 181.606-51.917-13.747 39.629-149.35-53.734-44.749-78.95-4.070 11.11-214.912 2.406 0.102-2.304-1.613 30.925-43.904 162.253 114.381 85.171-120.806 43.878 30.95zM427.162 526.003c0-36.491-29.582-66.074-66.074-66.074s-66.074 29.582-66.074 66.074c0 36.491 29.582 66.074 66.074 66.074s66.074-29.582 66.074-66.074zM497.69 705.408c0-14.605-11.84-26.445-26.445-26.445s-26.445 11.84-26.445 26.445c0 14.605 11.84 26.445 26.445 26.445s26.445-11.84 26.445-26.445z" />
<glyph unicode="&#xe679;" glyph-name="knees-to-waist-strict" d="M568.166 110.669l-19.021 200.602-109.389-10.368 52.941 160.742-45.466 14.976 2.867 14.080c1.766-0.768 3.405-1.741 5.274-2.355 34.662-11.418 72.013 7.424 83.43 42.086s-7.424 72.013-42.086 83.43c-6.938 2.278-13.926 3.046-20.838 3.021l20.48 100.25-52.608 10.752-48-234.906-67.149-203.827 0.563-0.179 4.915-51.968 166.656 15.795 13.952-147.149 53.478 5.018zM505.856 772.378c0-14.605-11.84-26.445-26.445-26.445s-26.445 11.84-26.445 26.445c0 14.605 11.84 26.445 26.445 26.445s26.445-11.84 26.445-26.445z" />
<glyph unicode="&#xe67a;" glyph-name="knees-waist" d="M630.118 99.482l-15.334 200.909-109.568-8.346 55.91 159.744-45.184 15.821 3.123 14.029c1.766-0.794 3.379-1.792 5.222-2.458 34.432-12.058 72.141 6.093 84.173 40.525 12.058 34.432-6.093 72.141-40.525 84.173-6.886 2.406-13.875 3.302-20.787 3.405l22.323 99.84-52.403 11.725-52.326-233.984-70.912-202.573 0.563-0.205 3.968-52.045 166.912 12.723 11.238-147.379 53.606 4.096zM587.699 774.17c0-14.605-11.84-26.445-26.445-26.445s-26.445 11.84-26.445 26.445c0 14.605 11.84 26.445 26.445 26.445s26.445-11.84 26.445-26.445z" />
<glyph unicode="&#xe67b;" glyph-name="log-carry" d="M596.019 559.437h85.606v41.958l55.398 27.162-23.629 48.205-31.77-15.565v12.518h-93.056c0.256 2.355 0.717 4.659 0.717 7.066 0 36.48-29.568 66.074-66.074 66.074s-66.074-29.568-66.074-66.074c0-2.432 0.461-4.71 0.717-7.066h-170.88v-114.278h162.176l-39.219-163.354-0.614 0.026-0.102-3.021-0.102-0.435 0.077-0.026-3.507-114.79 0.563-0.026-3.046-126.976 53.683-1.28 3.891 163.072h-0.307l2.048 67.2 14.797-3.558 75.341-112.691-1.715-113.587 53.683-0.819 1.946 128.154 1.024 0.691-89.216 133.453 29.926 124.595 47.718 23.373z" />
<glyph unicode="&#xe67c;" glyph-name="lsit-bar" d="M586.547 314.342v117.427l169.702 254.336-0.973 0.64h49.126v29.133h-585.984v-29.158h49.126l-0.998-0.64 173.312-259.738v-112h-0.051v-53.683h365.798v53.683h-219.059zM692.122 686.746l-117.632-176.307h-126.182l-117.632 176.307h361.446zM439.808 233.805h365.798v-53.683h-365.798v53.683zM579.277 595.046c0-36.491-29.582-66.074-66.074-66.074s-66.074 29.582-66.074 66.074c0 36.491 29.582 66.074 66.074 66.074s66.074-29.582 66.074-66.074z" />
<glyph unicode="&#xe67d;" glyph-name="lsit-parrallete" d="M704.742 311.501v53.683h-254.438v196.096h-19.686v21.453c27.546 7.962 47.795 33.075 47.795 63.181 0 36.48-29.568 66.074-66.074 66.074s-66.074-29.568-66.074-66.074c0-23.424 12.262-43.878 30.643-55.603v-29.005h-37.914v-196.096h-0.051v-53.683h37.99v-48.563h-57.677v-78.925h29.158v49.766h132.122v-49.766h29.158v78.925h-79.078v48.563h274.125z" />
<glyph unicode="&#xe67e;" glyph-name="lsit-rings" d="M517.581 511.386h-73.318v-228.198h146.662v228.198zM444.237 283.187h365.798v-53.683h-365.798v53.683zM444.237 202.65h365.798v-53.683h-365.798v53.683zM295.424 511.386h426.445v-53.683h-426.445v53.683zM581.197 596.173c0-36.491-29.582-66.074-66.074-66.074s-66.074 29.582-66.074 66.074c0 36.491 29.582 66.074 66.074 66.074s66.074-29.582 66.074-66.074zM258.842 554.112c-34.662 0-62.771-28.109-62.771-62.771s28.109-62.771 62.771-62.771c34.662 0 62.771 28.109 62.771 62.771s-28.109 62.771-62.771 62.771zM258.842 448.947c-23.398 0-42.394 18.97-42.394 42.394s18.97 42.394 42.394 42.394 42.394-18.97 42.394-42.394-18.97-42.394-42.394-42.394zM249.114 747.366h23.475v-202.496h-23.475v202.496zM767.539 554.112c-34.662 0-62.771-28.109-62.771-62.771s28.109-62.771 62.771-62.771c34.662 0 62.771 28.109 62.771 62.771-0.026 34.662-28.109 62.771-62.771 62.771zM767.539 448.947c-23.398 0-42.394 18.97-42.394 42.394s18.97 42.394 42.394 42.394 42.394-18.97 42.394-42.394-18.995-42.394-42.394-42.394zM757.786 747.366h23.475v-202.496h-23.475v202.496z" />
<glyph unicode="&#xe67f;" glyph-name="lunge-backrack" d="M705.92 312.525l-106.317 52.198v161.075h-64.384c2.56 4.608 4.762 9.37 6.528 14.387 2.304-0.23 4.531-0.691 6.912-0.691 36.48 0 66.074 29.568 66.074 66.074s-29.568 66.074-66.074 66.074c-18.483 0-35.123-7.629-47.13-19.84-14.157 8.499-30.515 13.67-48.23 13.67-51.994 0-94.131-42.138-94.131-94.131s42.138-94.131 94.131-94.131c16.154 0 31.13 4.454 44.416 11.622v-153.267l-46.72-66.509-163.661-47.821 22.733-49.971 171.392 50.099 0.358-0.333 59.571 84.787h56.32l55.603-27.315v-107.264h53.683v141.261h-1.075z" />
<glyph unicode="&#xe680;" glyph-name="lunge-forward" d="M680.422 193.357h53.709v159.59h-0.922l-110.336 53.453v-58.906l57.549-28.365zM404.173 311.987l-169.958-65.869 19.405-50.074 183.987 71.296-0.435 1.152 0.614-0.486 81.715 102.451h58.189v219.981h-101.888v-0.666l-0.486 0.666-100.429-73.984 84.557-114.765 16.384 20.019v-19.917l-71.654-89.805zM449.92 505.037l25.856 19.046v-54.144l-25.856 35.098zM592.794 670.157c0-36.491-29.582-66.074-66.074-66.074s-66.074 29.582-66.074 66.074c0 36.491 29.582 66.074 66.074 66.074s66.074-29.582 66.074-66.074zM219.008 192.666h585.984v-29.158h-585.984v29.158z" />
<glyph unicode="&#xe681;" glyph-name="lunge-frontrack" d="M626.176 404.838v0l3.482-1.075 17.459 56.218c4.198-0.563 8.346-1.28 12.672-1.28 51.994 0 94.131 42.138 94.131 94.131s-42.138 94.131-94.131 94.131c-21.632 0-41.318-7.603-57.242-19.866-12.083 15.718-30.874 26.035-52.224 26.035-36.48 0-66.074-29.568-66.074-66.074s29.568-66.074 66.074-66.074c7.091 0 13.773 1.408 20.173 3.456 1.92-6.016 4.378-11.725 7.398-17.152h-78.49v-190.234l-46.72-66.509-163.661-47.795 22.733-49.971 171.392 50.099 0.358-0.333 59.571 84.787h56.32l55.603-27.315v-107.264h53.683v141.261h-1.101l-106.317 52.198v66.33l24.909-7.706z" />
<glyph unicode="&#xe682;" glyph-name="lunge-hanging" d="M703.13 297.754l-106.317 52.198v25.088l27.699-7.296 1.024 142.541-28.723 0.205v0.512h-3.072v0.205l-24.602-0.205h-43.725l-24.602 0.205v-0.205h-5.862v-0.538l-25.958-0.179 1.024-142.541 24.934 6.554v-53.53l-46.72-66.483-163.661-47.846 22.733-49.971 171.392 50.099 0.384-0.307 59.571 84.787h56.32l55.603-27.315v-107.264h53.683v141.286zM611.968 590.771c0-36.491-29.582-66.074-66.074-66.074s-66.074 29.582-66.074 66.074c0 36.491 29.582 66.074 66.074 66.074s66.074-29.582 66.074-66.074z" />
<glyph unicode="&#xe683;" glyph-name="lunge-jumping-backrack" d="M425.421 339.456l-163.661-47.821 22.733-49.971 171.392 50.099 0.358-0.333 59.571 84.787h56.32l55.603-27.315v-107.264h53.683v141.261h-1.126l-106.317 52.198v161.075h-64.384c2.56 4.608 4.762 9.37 6.528 14.387 2.304-0.23 4.531-0.691 6.912-0.691 36.48 0 66.074 29.568 66.074 66.074s-29.568 66.074-66.074 66.074c-18.483 0-35.123-7.629-47.13-19.84-14.157 8.499-30.515 13.67-48.23 13.67-51.994 0-94.131-42.138-94.131-94.131s42.138-94.131 94.131-94.131c16.154 0 31.13 4.454 44.416 11.622v-153.267l-46.669-66.483zM215.373 140.083h585.984v-29.158h-585.984v29.158z" />
<glyph unicode="&#xe684;" glyph-name="lunge-jumping-hanging" d="M428.621 339.456l-163.661-47.821 22.733-49.971 171.392 50.099 0.384-0.333 59.571 84.787h56.32l55.603-27.29v-107.264h53.683v141.261h-1.126l-106.317 52.198v30.72l49.024-12.928 1.050 142.541-50.074 0.384v0.358h-26.547v0.179l-24.064-0.179-24.064 0.179v-0.179h-27.187v-0.384l-49.434-0.358 1.050-142.541 48.384 12.749v-59.699zM592.358 675.942c0-36.491-29.582-66.074-66.074-66.074s-66.074 29.582-66.074 66.074c0 36.491 29.582 66.074 66.074 66.074s66.074-29.582 66.074-66.074zM218.573 140.083h585.984v-29.158h-585.984v29.158z" />
<glyph unicode="&#xe685;" glyph-name="lunge-jumping-overhead" d="M431.821 339.456l-163.661-47.821 22.733-49.971 171.392 50.099 0.358-0.333 59.571 84.787h56.346l55.603-27.315v-107.264h53.683v141.261h-1.126l-106.317 52.198v161.075h-99.558l0.154 35.174c12.083-13.107 29.235-21.478 48.461-21.478 36.48 0 66.074 29.568 66.074 66.074s-29.568 66.074-66.074 66.074c-19.021 0-36.019-8.141-48.077-21.018l0.179 41.293-53.581 14.131-1.050-234.598 51.61-0.384v-135.501l-46.72-66.483zM221.773 140.083h585.984v-29.158h-585.984v29.158z" />
<glyph unicode="&#xe686;" glyph-name="lunge-jumping" d="M471.731 316.877l-163.661-47.821 22.733-49.971 171.392 50.099 0.358-0.333 59.571 84.787h56.32l55.603-27.315v-107.264h53.683v141.261h-1.126l-106.317 52.198v43.085l66.125-10.010 21.35 140.954-55.142-5.53-11.264-74.291-21.094 3.2v63.667h-101.888v-0.666l-0.486 0.666-100.429-74.010 84.557-114.765 16.384 20.019v-21.504l-46.669-66.458zM492.621 488.243l25.856 19.046v-54.144l-25.856 35.098zM635.469 653.363c0-36.491-29.582-66.074-66.074-66.074s-66.074 29.582-66.074 66.074c0 36.491 29.582 66.074 66.074 66.074s66.074-29.582 66.074-66.074zM261.683 117.504h585.984v-29.158h-585.984v29.158z" />
<glyph unicode="&#xe687;" glyph-name="lunge-overhead" d="M712.32 306.125l-106.317 52.198v161.075h-99.558l0.154 35.174c12.083-13.107 29.235-21.478 48.461-21.478 36.48 0 66.074 29.568 66.074 66.074s-29.568 66.074-66.074 66.074c-19.021 0-36.019-8.141-48.077-21.018l0.179 41.293-53.581 14.131-1.050-234.598 51.61-0.384v-135.501l-46.72-66.509-163.661-47.821 22.733-49.971 171.392 50.099 0.358-0.333 59.571 84.787h56.346l55.603-27.315v-107.264h53.683v141.261h-1.126z" />
<glyph unicode="&#xe688;" glyph-name="lunge-reverse" d="M592 295.194l-71.603 89.779v19.917l16.384-20.019 84.557 114.765-2.944 2.176-97.485 71.834-0.486-0.666v0.666h-101.888v-161.075l-155.571-76.416h-0.896v-159.59h53.683v125.696l104.627 51.379h56.32l81.715-102.451 0.614 0.486-0.435-1.152 183.987-71.296 19.405 50.074-169.984 65.894zM546.227 488.243l-25.856-35.098v54.144l25.856-19.046zM535.526 653.363c0-36.491-29.582-66.074-66.074-66.074s-66.074 29.582-66.074 66.074c0 36.491 29.582 66.074 66.074 66.074s66.074-29.582 66.074-66.074z" />
<glyph unicode="&#xe689;" glyph-name="lunge-snatch" d="M472.218 574.054v-188.646l-71.603-89.779-169.958-65.869 19.405-50.074 183.987 71.296-0.435 1.152 0.614-0.486 81.715 102.451h56.32l104.627-51.379v-125.696h53.683v159.59h-0.896l-155.571 76.416v161.050h-6.298l44.058 65.946 0.512 0.051-0.051 0.666 0.845 1.28-0.973 0.666-13.158 193.229-52.173-18.714 6.989-105.216c-9.216 4.864-19.558 7.91-30.694 7.91-36.48 0-66.074-29.568-66.074-66.074 0-33.024 24.32-60.16 55.987-65.050l-9.83-14.694h-31.027zM215.424 176.333h585.984v-29.158h-585.984v29.158z" />
<glyph unicode="&#xe68a;" glyph-name="lunge-tactical" d="M623.949 256.358c0-23.23-18.831-42.061-42.061-42.061s-42.061 18.831-42.061 42.061c0 23.23 18.831 42.061 42.061 42.061s42.061-18.831 42.061-42.061zM761.062 336.154l-155.571 76.416v161.075h-101.888v-0.666l-0.486 0.666-100.429-74.010 84.557-114.765 16.384 20.019v-19.917l-71.603-89.779-169.984-65.869 19.405-50.074 183.987 71.296-0.435 1.152 0.614-0.486 81.715 102.451h56.32l104.627-51.379v-125.696h53.683v159.59h-0.896zM477.773 488.243l25.856 19.046v-54.144l-25.856 35.098zM620.621 653.363c0-36.491-29.582-66.074-66.074-66.074s-66.074 29.582-66.074 66.074c0 36.491 29.582 66.074 66.074 66.074s66.074-29.582 66.074-66.074z" />
<glyph unicode="&#xe68b;" glyph-name="lunge-walking-backrack" d="M442.010 308.173l-163.661-47.821 22.733-49.971 171.392 50.099 0.358-0.333 59.571 84.787h56.32l55.603-27.315v-107.264h53.683v141.261h-1.126l-106.317 52.198v161.075h-64.384c2.56 4.608 4.762 9.37 6.528 14.387 2.304-0.23 4.531-0.691 6.912-0.691 36.48 0 66.074 29.568 66.074 66.074s-29.568 66.074-66.074 66.074c-18.483 0-35.123-7.629-47.13-19.84-14.157 8.499-30.515 13.67-48.23 13.67-51.994 0-94.131-42.138-94.131-94.131s42.138-94.131 94.131-94.131c16.154 0 31.13 4.454 44.416 11.622v-153.267l-46.669-66.483zM231.962 206.925h585.984v-29.158h-585.984v29.158z" />
<glyph unicode="&#xe68c;" glyph-name="lunge-walking-frontrack" d="M531.149 564.915h-50.944v-190.234l-46.72-66.509-163.661-47.821 22.733-49.971 171.392 50.099 0.358-0.333 59.571 84.787h56.32l55.603-27.315v-107.264h53.683v141.261h-1.101l-106.317 52.198v66.33l28.39-8.806 17.459 56.218c4.198-0.563 8.346-1.28 12.672-1.28 51.994 0 94.131 42.138 94.131 94.131s-42.138 94.131-94.131 94.131c-21.632 0-41.318-7.603-57.242-19.866-12.083 15.718-30.874 26.035-52.224 26.035-36.48 0-66.074-29.568-66.074-66.074s29.568-66.074 66.074-66.074c7.091 0 13.773 1.408 20.173 3.456 1.92-6.016 4.378-11.725 7.398-17.152h-27.546zM223.437 206.925h585.984v-29.158h-585.984v29.158z" />
<glyph unicode="&#xe68d;" glyph-name="lunge-walking-hanging" d="M465.126 310.656l-163.661-47.821 22.733-49.971 171.392 50.099 0.384-0.333 59.571 84.787h56.32l55.603-27.29v-107.264h53.683v141.261h-1.126l-106.291 52.198v25.088l27.674-7.296 1.050 142.541-28.723 0.231v0.512h-3.098v0.179l-24.422-0.179h-44.083l-24.422 0.179v-0.179h-5.862v-0.538l-25.958-0.205 1.050-142.541 24.909 6.579v-53.53zM628.864 647.142c0-36.491-29.582-66.074-66.074-66.074s-66.074 29.582-66.074 66.074c0 36.491 29.582 66.074 66.074 66.074s66.074-29.582 66.074-66.074zM255.078 210.483h585.984v-29.158h-585.984v29.158z" />
<glyph unicode="&#xe68e;" glyph-name="lunge-walking-tactical" d="M596.122 271.258c0-23.23-18.831-42.061-42.061-42.061s-42.061 18.831-42.061 42.061c0 23.23 18.831 42.061 42.061 42.061s42.061-18.831 42.061-42.061zM404.173 310.093l-169.958-65.869 19.405-50.074 183.987 71.296-0.435 1.152 0.614-0.486 81.715 102.451h56.32l104.627-51.379v-125.696h53.683v159.59h-0.896l-155.571 76.416v161.050h-101.888v-0.666l-0.486 0.666-100.454-74.010 84.557-114.765 16.384 20.019v-19.917l-71.603-89.779zM449.92 503.168l25.856 19.046v-54.144l-25.856 35.098zM592.794 668.288c0-36.491-29.582-66.074-66.074-66.074s-66.074 29.582-66.074 66.074c0 36.491 29.582 66.074 66.074 66.074s66.074-29.582 66.074-66.074zM219.008 190.797h585.984v-29.158h-585.984v29.158z" />
<glyph unicode="&#xe68f;" glyph-name="lunge-walking" d="M432 295.194l-169.958-65.869 19.405-50.074 183.987 71.296-0.435 1.152 0.614-0.486 81.715 102.451h56.32l104.627-51.379v-125.696h53.683v159.59h-0.896l-155.571 76.416v161.075h-101.888v-0.666l-0.486 0.666-100.429-74.010 84.557-114.765 16.384 20.019v-19.917l-71.629-89.805zM477.773 488.243l25.856 19.046v-54.144l-25.856 35.098zM620.621 653.363c0-36.491-29.582-66.074-66.074-66.074s-66.074 29.582-66.074 66.074c0 36.491 29.582 66.074 66.074 66.074s66.074-29.582 66.074-66.074zM246.835 175.872h585.984v-29.158h-585.984v29.158z" />
<glyph unicode="&#xe690;" glyph-name="lunge" d="M761.062 336.154l-155.571 76.416v161.075h-101.888v-0.666l-0.486 0.666-100.429-73.984 84.557-114.765 16.384 20.019v-19.917l-71.603-89.779-169.984-65.869 19.405-50.074 183.987 71.296-0.435 1.152 0.614-0.486 81.715 102.451h56.32l104.627-51.379v-125.696h53.683v159.59h-0.896zM477.773 488.243l25.856 19.046v-54.144l-25.856 35.098zM620.621 653.363c0-36.491-29.582-66.074-66.074-66.074s-66.074 29.582-66.074 66.074c0 36.491 29.582 66.074 66.074 66.074s66.074-29.582 66.074-66.074z" />
<glyph unicode="&#xe691;" glyph-name="man-maker" d="M198.605 588.723v-60.339h-0.077v-221.107h53.709v221.107h45.619v-221.107h53.709v221.107h45.619v-221.107h53.709v281.446h-126.157zM699.315 588.723h-126.131v-60.339h-0.077v-221.107h53.709v221.107h45.619v-221.107h53.709v221.107h45.619v-221.107h53.709v281.446z" />
<glyph unicode="&#xe692;" glyph-name="monkey-bar" d="M804.992 773.811h-585.984v-29.158h97.357l31.334-116.326 1.562 0.435-1.408-0.794 68.506-121.472-26.317-109.619-32.384-76.928-79.974-139.366 46.566-26.726 70.63 123.059 2.483-1.050 32.819 77.978 8.781-74.368-46.029-140.57 51.021-16.717 49.664 151.654-1.254 0.41 1.254 0.154-9.293 78.771 38.502 160.358 64.512 114.381-1.408 0.794 1.587-0.435 31.334 116.326h186.163v29.21zM547.712 687.104c-11.418 19.814-32.538 33.306-57.037 33.306-36.48 0-66.074-29.568-66.074-66.074s29.568-66.074 66.074-66.074c4.608 0 9.088 0.486 13.414 1.382l-8.064-14.31-59.699 14.336-1.562-6.502-36.941 65.51-25.856 96h191.232l-15.488-57.574z" />
<glyph unicode="&#xe693;" glyph-name="mountain-climber" d="M842.010 596.915c0-36.491-29.582-66.074-66.074-66.074s-66.074 29.582-66.074 66.074c0 36.491 29.582 66.074 66.074 66.074s66.074-29.582 66.074-66.074zM182.81 320.486l53.35 6.118-9.216 80.307 250.010 46.336 0.128-0.435 5.094 1.408 4.48 0.819 107.776-88.013 23.398-42.394 63.36 34.97-37.043 67.123 2.15 2.637-63.949 52.224 83.072 22.707 46.515-174.464 51.891 13.85-55.987 209.869-1.715-0.461-3.84 14.080-13.44 49.126-238.618-65.203 9.216-33.792-256.742-47.565 0.077-0.307-36.582-4.198zM95.206 289.28h862.746v-29.158h-862.746v29.158z" />
</font>
</defs>
</svg>
